<svg version="1.1" id="Layer_1" xmlns="http://www.w3.org/2000/svg" xmlns:xlink="http://www.w3.org/1999/xlink" x="0px" y="0px"
	 width="100%" viewBox="0 0 720 720" enable-background="new 0 0 720 720" xml:space="preserve">
<path fill="#000000" opacity="1.000000" stroke="none" 
	d="
M1.000000,270.000000 
	C1.000000,180.000000 1.000000,90.500000 1.000000,1.000000 
	C241.000000,1.000000 481.000000,1.000000 721.000000,1.000000 
	C721.000000,241.000000 721.000000,481.000000 721.000000,721.000000 
	C481.000000,721.000000 241.000000,721.000000 1.000000,721.000000 
	C1.000000,570.833313 1.000000,420.666656 1.000000,270.000000 
M677.020142,205.974487 
	C677.020142,205.974487 677.090515,205.969543 677.010742,205.308807 
	C676.661621,204.809555 676.312439,204.310287 675.844055,203.131485 
	C673.553101,199.026932 671.348633,194.871185 668.955200,190.827316 
	C661.446716,178.141388 654.540283,165.030960 646.162537,152.943085 
	C632.420959,133.115799 617.080750,114.500404 598.415466,98.961624 
	C588.074951,90.353127 577.875427,81.498512 566.926147,73.720840 
	C557.116638,66.752762 546.367126,61.107910 535.697693,54.263229 
	C532.398804,52.496380 529.216309,50.452431 525.781311,49.009563 
	C508.850525,41.897736 492.181580,33.948215 474.787781,28.212196 
	C456.792633,22.277884 438.098694,18.434278 419.659515,13.882451 
	C400.127136,9.060760 380.105133,7.769670 360.133881,7.203390 
	C346.305115,6.811278 332.369904,7.796275 318.578186,9.146087 
	C304.947113,10.480177 291.252350,12.228559 277.910614,15.237015 
	C248.081726,21.963198 219.860779,33.234474 193.109238,48.055641 
	C189.200516,50.221199 185.802094,53.307865 181.685287,56.477108 
	C178.384262,58.565746 174.937576,60.457611 171.806351,62.775612 
	C154.184418,75.820862 136.168259,88.384918 121.005173,104.444954 
	C112.477036,113.477547 103.430252,122.044289 95.254066,131.378815 
	C86.631744,141.222672 78.143387,151.300522 70.731010,162.057877 
	C61.569756,175.353287 52.673393,188.987228 45.276207,203.308365 
	C31.664671,229.660645 21.572800,257.391693 15.669240,286.632507 
	C10.704974,311.220917 8.197554,335.921082 9.020185,361.905243 
	C10.340274,377.406738 11.085758,392.983429 13.103255,408.393616 
	C16.984371,438.038635 25.095284,466.655243 36.031960,494.461975 
	C57.926262,550.128906 90.814957,597.971802 138.039154,635.142822 
	C152.339722,646.399109 168.122543,655.772217 183.195633,666.684875 
	C184.799515,667.772217 186.403397,668.859558 188.577606,670.333740 
	C191.054535,671.669434 193.484406,673.102356 196.015350,674.326294 
	C247.797546,699.368652 302.412933,713.291504 359.929077,714.658630 
	C402.673157,715.674500 444.241028,708.600342 484.168549,692.963501 
	C502.232758,685.889099 519.835327,677.818909 536.681335,666.764587 
	C549.692993,657.580139 563.040588,648.832764 575.658020,639.135437 
	C629.664062,597.627625 668.394165,544.624817 692.576660,481.084106 
	C704.082520,450.851837 710.701477,419.449005 712.581421,386.418701 
	C712.677002,377.611572 712.772583,368.804443 712.974548,359.114807 
	C712.928772,357.041321 712.882935,354.967865 712.951416,351.978302 
	C712.658875,346.279541 712.366333,340.580750 712.070312,333.978394 
	C710.654541,321.444885 710.267151,308.686005 707.581848,296.430634 
	C703.554138,278.048370 698.308350,259.898468 692.788269,241.892654 
	C690.147583,233.279114 685.686951,225.223526 682.035339,216.981400 
	C682.035339,216.981400 682.103271,216.981842 682.029541,216.215866 
	C680.677979,213.289551 679.326416,210.363235 677.916321,207.487091 
	C677.916321,207.487091 677.964111,207.547592 678.533142,207.073853 
	C678.028320,206.683899 677.523438,206.293930 677.020142,205.974487 
z"/>
<path fill="#01BA88" opacity="1.000000" stroke="none" 
	d="
M183.226440,666.007812 
	C168.122543,655.772217 152.339722,646.399109 138.039154,635.142822 
	C90.814957,597.971802 57.926262,550.128906 36.031960,494.461975 
	C25.095284,466.655243 16.984371,438.038635 13.103255,408.393616 
	C11.085758,392.983429 10.340274,377.406738 9.559094,361.436340 
	C64.184227,361.035156 118.270454,361.102875 172.698669,361.288330 
	C175.688629,361.472778 178.336319,361.580292 180.984650,361.599640 
	C200.028458,361.738861 219.072403,361.860168 238.082947,362.446869 
	C238.370483,367.533966 238.444962,372.193939 239.051849,376.783508 
	C243.336441,409.185059 258.318085,435.867767 282.970886,457.051727 
	C288.170746,461.519928 294.595581,464.562561 300.363831,468.542786 
	C300.206360,469.209808 300.141083,469.596100 299.853027,470.241425 
	C291.351715,484.709229 283.062378,498.911774 274.796539,513.127930 
	C245.737274,563.106201 216.702148,613.098450 187.547470,663.020935 
	C186.747589,664.390564 184.694916,665.028625 183.226440,666.007812 
M200.057587,501.226746 
	C197.794449,500.746613 195.511307,500.344727 193.271576,499.772919 
	C183.011765,497.153503 172.875198,493.836212 162.474060,492.058777 
	C155.185501,490.813202 149.137558,494.676086 145.835693,501.507629 
	C141.894791,509.661346 144.130127,517.204895 149.456329,523.848633 
	C154.215805,529.785461 160.323486,533.219116 168.294647,531.129028 
	C170.505249,530.549438 173.770782,530.566528 172.579529,526.605164 
	C171.636078,523.467773 170.174957,521.923767 166.415863,523.239929 
	C161.957153,524.801025 157.811462,523.496887 154.815369,519.707336 
	C151.687332,515.750977 149.664825,511.436981 152.199905,506.339813 
	C154.432846,501.850189 158.256622,499.247498 163.101715,500.008362 
	C170.108185,501.108673 176.983841,503.070557 183.892120,504.759705 
	C190.656387,506.413666 197.323166,508.617950 204.171707,509.704620 
	C207.106125,510.170166 210.392303,508.418884 213.518661,507.674866 
	C212.490402,505.146851 211.711227,502.479675 210.390320,500.115173 
	C204.970718,490.413849 199.386185,480.804657 193.922577,471.266754 
	C186.576859,473.758209 186.495651,474.182251 189.956406,480.331726 
	C193.782318,487.130066 197.395477,494.048126 200.990158,501.023224 
	C200.990158,501.023224 200.883728,501.137024 200.057587,501.226746 
M170.821167,443.318390 
	C174.701920,435.622040 174.611267,434.798309 168.828308,429.192902 
	C165.695190,435.790619 162.582703,442.175751 159.619949,448.629669 
	C156.428101,455.582642 156.433838,455.525360 148.720688,454.530762 
	C142.747299,453.760529 136.727463,453.350342 130.526474,452.760956 
	C131.221664,460.720062 136.419907,460.968628 141.679840,461.615051 
	C152.954956,463.000671 153.264313,463.306244 147.613846,473.400146 
	C144.569824,478.837952 145.225708,482.923462 149.796204,487.578888 
	C153.041504,480.735046 156.242691,474.229645 159.207001,467.618011 
	C160.478699,464.781616 162.262161,463.561615 165.388596,463.884705 
	C171.668823,464.533661 177.965836,465.028931 184.261673,465.512756 
	C186.069016,465.651672 187.896057,465.534058 189.907043,465.534058 
	C188.383026,459.082947 184.865875,456.888855 179.200882,457.005280 
	C174.648422,457.098877 170.079544,456.394073 164.479721,455.963776 
	C166.808563,451.307129 168.640945,447.643219 170.821167,443.318390 
z"/>
<path fill="#01BB88" opacity="1.000000" stroke="none" 
	d="
M677.964111,207.547592 
	C677.964111,207.547592 677.916321,207.487091 677.652527,207.808304 
	C678.960266,211.080292 680.531738,214.031067 682.103271,216.981842 
	C682.103271,216.981842 682.035339,216.981400 681.797241,217.288574 
	C682.219238,219.468369 682.805542,221.370895 683.550232,223.209244 
	C698.229370,259.443481 707.214844,297.072510 711.166138,336.369324 
	C711.694519,342.172272 712.265808,347.533325 712.837097,352.894379 
	C712.882935,354.967865 712.928772,357.041321 712.655151,359.632965 
	C712.109009,360.438324 711.882263,360.725525 711.279541,360.995178 
	C709.648315,360.980042 708.393127,360.982483 706.743286,360.844666 
	C668.890137,360.517639 631.431824,360.307068 593.973206,360.150970 
	C558.676514,360.003906 523.379517,359.914185 488.062317,359.352661 
	C487.358154,329.395416 477.779724,303.062714 458.730316,280.577271 
	C448.499786,268.501434 436.795227,257.802673 421.965637,250.990448 
	C421.919312,250.790710 421.757507,250.413895 422.007233,250.138916 
	C445.143127,210.575424 468.011841,171.276733 490.921631,132.001968 
	C505.927826,106.276489 520.993408,80.585640 536.032349,54.879280 
	C546.367126,61.107910 557.116638,66.752762 566.926147,73.720840 
	C577.875427,81.498512 588.074951,90.353127 598.415466,98.961624 
	C617.080750,114.500404 632.420959,133.115799 646.162537,152.943085 
	C654.540283,165.030960 661.446716,178.141388 668.955200,190.827316 
	C671.348633,194.871185 673.553101,199.026932 675.661377,203.653961 
	C676.015991,204.774139 676.553284,205.371841 677.090515,205.969543 
	C677.090515,205.969543 677.020142,205.974487 676.901245,206.334702 
	C677.176331,206.979141 677.570190,207.263367 677.964111,207.547592 
M531.302673,230.177704 
	C522.546204,227.408493 513.819153,223.903091 504.051910,228.825226 
	C511.283722,241.216187 518.213684,253.090027 525.075806,264.847504 
	C532.410522,262.433197 532.561035,262.066620 529.227600,256.335358 
	C527.469238,253.312119 525.742981,250.270248 524.002991,247.236328 
	C521.892395,243.556259 519.782593,239.875717 517.672485,236.195358 
	C518.019104,235.669876 518.365723,235.144409 518.712341,234.618927 
	C522.223328,235.618683 525.706726,236.731766 529.250732,237.596085 
	C538.413269,239.830688 547.511414,242.591278 556.809814,243.923874 
	C564.307434,244.998398 570.017395,240.537170 573.209412,233.927155 
	C577.172974,225.719681 574.290955,218.241776 568.971436,211.682007 
	C564.249390,205.858978 558.072632,202.956711 550.413940,204.642609 
	C548.579163,205.046494 546.892944,206.124725 545.288330,206.827179 
	C546.189392,212.229111 548.098694,214.061188 553.534668,212.515656 
	C560.895996,210.422714 568.807983,218.934952 567.383484,226.601517 
	C566.018066,233.950058 560.082031,237.558044 550.757080,235.779724 
	C544.411194,234.569565 538.272034,232.275848 531.302673,230.177704 
M559.436218,269.087646 
	C557.730957,270.079742 556.100708,271.703674 554.303040,271.917145 
	C551.550110,272.244080 548.684082,271.564819 545.861877,271.373779 
	C540.377075,271.002502 534.889465,270.673706 529.068359,270.306213 
	C530.728577,276.630402 533.633484,279.428162 539.621399,279.051727 
	C544.263123,278.759918 548.975098,279.585449 554.664307,279.985138 
	C551.914368,285.691803 550.035889,290.308014 547.546448,294.567108 
	C544.694336,299.446503 546.418396,302.962036 550.464417,307.152893 
	C553.422668,300.832672 556.119019,295.027283 558.853638,289.239990 
	C563.088013,280.278748 563.087952,280.375854 573.064941,281.586945 
	C578.206238,282.211029 583.395386,282.440796 589.042358,282.886597 
	C587.744141,277.028168 585.036804,274.412476 579.916809,274.225555 
	C575.694031,274.071411 571.485718,273.519745 566.082642,273.038361 
	C568.299561,268.520813 569.948730,265.145294 571.611023,261.776276 
	C574.808777,255.295074 574.674805,254.478867 569.018616,248.372925 
	C565.875061,255.178101 562.826050,261.778564 559.436218,269.087646 
z"/>
<path fill="#FE2244" opacity="1.000000" stroke="none" 
	d="
M535.864990,54.571251 
	C520.993408,80.585640 505.927826,106.276489 490.921631,132.001968 
	C468.011841,171.276733 445.143127,210.575424 421.674438,249.991364 
	C418.813538,249.106674 416.513000,248.141266 414.260315,247.074860 
	C400.229584,240.432770 385.328461,237.017914 369.955444,236.117981 
	C344.859680,234.648834 321.440765,240.692062 299.516876,253.210617 
	C299.349365,253.177460 299.013641,253.115005 298.906342,252.778076 
	C261.834747,187.887024 224.852325,123.343254 187.972275,58.741047 
	C186.494766,56.152912 184.900528,55.230568 182.167542,55.968319 
	C185.802094,53.307865 189.200516,50.221199 193.109238,48.055641 
	C219.860779,33.234474 248.081726,21.963198 277.910614,15.237015 
	C291.252350,12.228559 304.947113,10.480177 318.578186,9.146087 
	C332.369904,7.796275 346.305115,6.811278 360.133881,7.203390 
	C380.105133,7.769670 400.127136,9.060760 419.659515,13.882451 
	C438.098694,18.434278 456.792633,22.277884 474.787781,28.212196 
	C492.181580,33.948215 508.850525,41.897736 525.781311,49.009563 
	C529.216309,50.452431 532.398804,52.496380 535.864990,54.571251 
M415.026184,143.152023 
	C405.569641,147.978546 401.738342,157.699585 404.636475,169.513443 
	C407.790100,182.368790 423.974243,187.788025 433.992554,179.126633 
	C436.275513,177.152847 437.587219,174.055634 439.520325,171.219666 
	C435.214478,169.419205 432.901031,169.796799 430.692535,172.861694 
	C425.756500,179.711853 415.409271,178.371094 412.066040,170.669647 
	C410.183014,166.331879 411.018768,164.932343 415.730621,164.877899 
	C422.378845,164.801071 429.028473,164.843979 435.677521,164.839005 
	C438.149170,164.837158 439.775909,164.192642 439.694305,161.144272 
	C439.321716,147.226578 429.232330,139.477249 415.026184,143.152023 
M344.400696,96.684891 
	C347.979919,110.147446 361.701416,115.364960 372.835968,107.425362 
	C379.838867,102.431892 380.422455,95.086441 380.020203,87.349396 
	C379.493408,77.217812 372.020050,69.962410 361.936371,69.998100 
	C351.661163,70.034462 344.368408,77.059570 344.011719,87.387405 
	C343.914581,90.200172 344.130951,93.023750 344.400696,96.684891 
M358.038177,174.337723 
	C358.962524,171.165573 360.528595,168.024353 360.683289,164.815094 
	C361.053772,157.129501 359.861084,149.635910 352.710388,145.005112 
	C346.117920,140.735794 339.154602,140.877792 332.401062,144.852524 
	C325.589600,148.861374 322.797424,158.025299 324.696289,167.933441 
	C326.212952,175.847443 330.583893,181.214645 338.373352,182.600983 
	C345.992126,183.956970 352.897888,181.768219 358.038177,174.337723 
M375.566742,175.135971 
	C373.018707,172.727097 371.768250,167.323730 366.475006,171.073624 
	C367.806396,179.967239 375.375763,184.460495 386.126465,182.858429 
	C392.370422,181.927948 397.357513,177.208450 397.941101,171.677765 
	C398.529968,166.096634 395.607849,162.424942 388.500488,160.028458 
	C384.561859,158.700394 380.475525,157.768585 376.624084,156.235382 
	C372.888580,154.748337 372.491089,151.644897 375.405426,149.355911 
	C378.595154,146.850616 386.489990,147.424179 388.633850,150.777588 
	C390.405457,153.548706 392.478760,155.106674 394.799744,152.634186 
	C395.682404,151.693893 394.753937,147.946579 393.525085,146.339478 
	C389.899170,141.597443 380.102661,140.584641 373.569427,143.631027 
	C369.160736,145.686768 366.882782,149.048172 367.050964,153.866913 
	C367.216888,158.621948 370.046600,161.488724 374.360168,162.939240 
	C378.457977,164.317215 382.785217,165.146683 386.678436,166.940353 
	C388.496307,167.777878 390.809296,170.509171 390.584900,172.043915 
	C390.317017,173.875870 387.734833,176.445206 385.861877,176.723862 
	C382.765839,177.184494 379.434906,176.066376 375.566742,175.135971 
M331.597504,79.112648 
	C336.614441,71.766258 341.631378,64.419876 346.828644,56.809429 
	C339.829620,55.358185 339.324463,55.595451 336.235565,60.445301 
	C332.750610,65.917023 329.208008,71.352425 325.644379,76.773315 
	C324.895538,77.912453 323.946136,78.919739 322.750366,80.410004 
	C318.060364,73.197418 313.563507,66.812149 309.656403,60.084396 
	C307.107880,55.696053 303.877594,55.341328 298.807434,56.804451 
	C301.924500,61.586884 304.448700,66.240273 307.706726,70.305504 
	C316.004913,80.659615 321.342041,91.810097 318.989014,105.512192 
	C318.906158,105.994690 318.798126,106.690308 319.051666,106.974419 
	C320.002319,108.039757 320.982788,109.634392 322.160614,109.840851 
	C326.339264,110.573326 325.927490,107.425606 326.023438,104.723854 
	C326.329559,96.100441 323.949982,86.907959 331.597504,79.112648 
M412.144928,85.493332 
	C412.110992,88.823807 412.211243,92.162285 412.013458,95.482994 
	C411.667236,101.295616 407.907349,104.988831 402.554840,105.010506 
	C397.044098,105.032822 394.284058,102.091064 394.117615,95.547020 
	C393.948303,88.889099 394.029327,82.224014 394.056458,75.562286 
	C394.066803,73.022507 393.904022,70.901138 390.440430,70.987473 
	C387.218719,71.067780 387.119080,73.149513 387.182159,75.419350 
	C387.413208,83.732178 387.653381,92.045013 387.954376,100.355522 
	C388.133026,105.288963 390.933411,108.267143 395.369019,109.989082 
	C401.915924,112.530693 407.336914,110.192589 411.353485,106.600349 
	C413.449554,107.987320 414.869568,109.288956 416.530579,109.787010 
	C416.980042,109.921783 418.870239,107.637123 418.891449,106.441536 
	C419.080536,95.785957 419.096222,85.123383 418.857697,74.469711 
	C418.831604,73.303993 416.884674,72.181274 415.828674,71.038597 
	C414.609802,72.195877 412.548340,73.219093 412.338654,74.536949 
	C411.821594,77.786957 412.154388,81.172188 412.144928,85.493332 
M285.130280,136.583344 
	C285.131195,149.881638 285.289398,163.182846 285.044708,176.476624 
	C284.962830,180.923569 286.486115,182.263672 290.806427,182.101700 
	C298.608246,181.809189 306.434692,182.175339 314.236786,181.886444 
	C315.833984,181.827286 318.484314,180.315460 318.722992,179.096207 
	C319.423920,175.515579 316.318512,175.949539 314.059601,175.925385 
	C309.073303,175.872055 304.067841,175.641693 299.104431,175.982513 
	C294.393890,176.305969 292.670288,174.789917 292.797546,169.868683 
	C293.111176,157.742096 292.914062,145.601883 292.887329,133.467239 
	C292.881592,130.863937 293.449646,128.024521 289.190460,127.932030 
	C284.666351,127.833794 285.145416,130.783676 285.132294,133.623245 
	C285.129211,134.288147 285.131195,134.953079 285.130280,136.583344 
z"/>
<path fill="#FE2244" opacity="1.000000" stroke="none" 
	d="
M536.017944,666.956848 
	C519.835327,677.818909 502.232758,685.889099 484.168549,692.963501 
	C444.241028,708.600342 402.673157,715.674500 359.929077,714.658630 
	C302.412933,713.291504 247.797546,699.368652 196.015350,674.326294 
	C193.484406,673.102356 191.054535,671.669434 188.347778,669.787598 
	C192.601303,661.294006 197.019318,653.308777 201.579681,645.405823 
	C218.016342,616.921509 234.496704,588.462463 250.969086,559.998840 
	C260.702728,543.179504 270.409698,526.344482 280.208679,509.563293 
	C287.740997,496.663757 295.398224,483.837189 303.327026,471.124756 
	C306.383423,472.501953 309.106598,473.746185 311.842865,474.960968 
	C332.500824,484.132355 353.991516,487.720856 376.556183,485.232941 
	C393.014893,483.418213 408.334900,478.289978 423.166901,470.865356 
	C423.356842,470.923798 423.746307,471.003204 423.867004,471.340485 
	C425.789032,474.864075 427.572144,478.060822 429.394348,481.235107 
	C464.932831,543.143921 500.475830,605.050110 536.017944,666.956848 
M285.347748,554.326904 
	C284.740601,554.839478 283.635132,555.320801 283.600739,555.869263 
	C283.047577,564.688599 287.397064,575.484863 298.377838,576.872070 
	C308.041473,578.092834 315.377411,573.233398 318.160767,563.987488 
	C321.347839,553.400513 317.809540,542.131592 309.927399,538.035950 
	C300.316376,533.041870 285.365479,536.901123 284.530151,548.393555 
	C287.438568,549.089661 290.078613,549.841187 292.018677,546.226624 
	C294.490692,541.621033 299.161133,540.831482 303.268646,542.208679 
	C306.307098,543.227539 309.109253,546.214783 311.015106,549.008362 
	C313.112946,552.083313 311.800964,554.227478 307.633270,554.158752 
	C300.488007,554.040833 293.338654,554.169739 285.347748,554.326904 
M367.684723,654.517639 
	C377.191376,649.068909 380.421661,640.024475 377.214508,627.835571 
	C375.107178,619.826660 368.678345,614.802734 360.442078,615.036072 
	C352.672302,615.256165 346.147583,618.455139 343.473694,625.904663 
	C340.519592,634.134705 340.547180,642.735901 346.533478,649.986328 
	C351.981445,656.584656 359.193695,657.221619 367.684723,654.517639 
M398.806824,553.911560 
	C398.611725,552.935120 398.437683,551.953918 398.218323,550.982971 
	C395.411987,538.560669 385.666351,533.194946 373.797272,537.531555 
	C363.249084,541.385681 358.901215,555.361206 364.449341,567.136658 
	C367.473419,573.555054 372.663025,576.582214 379.442566,576.946411 
	C391.843567,577.612610 398.875610,569.481323 398.806824,553.911560 
M333.023712,550.363098 
	C330.969604,547.107727 332.118134,544.594604 335.056793,542.795166 
	C339.198181,540.259216 346.813293,541.825867 349.254395,546.086731 
	C351.273926,549.611755 353.496979,549.563660 356.496826,548.125916 
	C355.535431,540.485535 351.170380,536.661194 342.966705,536.048828 
	C333.850342,535.368347 327.078949,539.085083 325.328369,545.730225 
	C323.963684,550.910583 326.091187,555.442200 331.646423,557.747803 
	C336.389221,559.716370 341.479401,560.836121 346.268921,562.707581 
	C350.233734,564.256836 350.560242,567.601990 347.271454,569.841309 
	C343.737518,572.247559 336.382172,571.415710 334.162140,567.900513 
	C332.452118,565.192810 330.342072,564.105164 328.283905,566.276306 
	C327.391113,567.218140 328.027740,570.639099 329.071899,572.193787 
	C332.156708,576.787048 340.627747,578.333679 347.459351,576.065002 
	C352.763916,574.303467 356.045532,570.346069 355.974609,565.616821 
	C355.892181,560.117310 352.567505,557.282532 347.698883,555.698303 
	C342.971832,554.160217 338.281067,552.510498 333.023712,550.363098 
M395.996155,630.432373 
	C395.336212,634.265930 395.679535,638.698242 393.819122,641.815247 
	C389.143158,649.649475 383.454132,656.877136 378.213959,664.377808 
	C377.147095,665.904846 376.267242,667.562561 375.197632,669.331299 
	C380.119446,670.915466 383.322998,670.003784 385.496277,665.872131 
	C386.729187,663.528198 388.400726,661.414551 389.878967,659.200073 
	C392.776581,654.859375 395.677185,650.520691 398.938293,645.639648 
	C403.762024,653.308411 408.167969,659.950134 412.178925,666.822327 
	C414.682800,671.112427 417.950104,671.643738 422.983765,670.094910 
	C419.815430,665.131958 417.236664,660.305664 413.920624,656.054443 
	C405.869598,645.732605 400.735779,634.658630 403.083069,621.174744 
	C403.139252,620.852051 403.066284,620.509094 403.087646,620.177734 
	C403.256744,617.554565 402.190125,615.612366 399.445892,616.329651 
	C398.090149,616.683899 396.435394,618.585266 396.203949,619.997742 
	C395.698975,623.079773 396.018280,626.296936 395.996155,630.432373 
M327.958710,652.043152 
	C329.232697,652.946289 330.420532,654.095337 331.837067,654.591492 
	C332.224060,654.727112 333.942474,652.911499 333.956757,651.974670 
	C334.098297,642.690247 334.311523,633.387817 333.864624,624.121277 
	C333.626678,619.186890 329.028717,614.911499 324.098358,615.103149 
	C319.189972,615.293945 314.333618,616.823914 309.633057,617.732117 
	C308.541382,617.051208 307.001221,616.090515 305.461090,615.129822 
	C304.652191,616.693420 303.181396,618.240662 303.142273,619.823303 
	C302.895447,629.803589 302.851044,639.794250 303.061523,649.774658 
	C303.091736,651.207336 304.857910,652.603394 305.820679,654.016357 
	C306.942596,652.738892 308.923279,651.535767 309.041382,650.171387 
	C309.628265,643.390442 309.572662,636.556641 310.040436,629.761841 
	C310.434082,624.044434 314.403290,620.677368 319.978821,620.851929 
	C325.322723,621.019104 327.819855,623.837158 327.910034,630.163818 
	C328.009613,637.152222 327.924988,644.143250 327.958710,652.043152 
M414.535797,536.987061 
	C412.369202,536.990112 410.103210,536.604858 408.068970,537.125366 
	C406.578705,537.506653 405.392700,539.077148 404.071106,540.117615 
	C405.451050,541.111145 406.782928,542.871948 408.219421,542.961914 
	C413.698151,543.304993 419.220215,543.310974 424.707275,543.048767 
	C428.838287,542.851440 430.243744,544.346313 430.175537,548.493591 
	C429.967255,561.156555 430.114929,573.825134 430.080261,586.491333 
	C430.073151,589.085449 430.399414,591.007202 433.772522,591.077759 
	C437.312347,591.151794 437.897675,589.308716 437.886810,586.389099 
	C437.830963,571.389771 437.817291,556.389771 437.903595,541.390686 
	C437.921814,538.222107 436.802490,536.871216 433.524994,536.956360 
	C427.529327,537.112183 421.526520,536.992249 414.535797,536.987061 
z"/>
<path fill="#FECC44" opacity="1.000000" stroke="none" 
	d="
M181.926422,56.222710 
	C184.900528,55.230568 186.494766,56.152912 187.972275,58.741047 
	C224.852325,123.343254 261.834747,187.887024 298.706207,253.039917 
	C290.807343,259.823517 282.422180,265.410156 275.301788,272.303253 
	C252.154541,294.711548 240.329285,322.519135 238.089783,354.494537 
	C237.636917,360.960388 237.890564,360.978027 231.299637,360.997375 
	C211.651978,361.055054 192.004333,361.112823 172.356674,361.170563 
	C118.270454,361.102875 64.184227,361.035156 9.641372,360.972809 
	C8.197554,335.921082 10.704974,311.220917 15.669240,286.632507 
	C21.572800,257.391693 31.664671,229.660645 45.276207,203.308365 
	C52.673393,188.987228 61.569756,175.353287 70.731010,162.057877 
	C78.143387,151.300522 86.631744,141.222672 95.254066,131.378815 
	C103.430252,122.044289 112.477036,113.477547 121.005173,104.444954 
	C136.168259,88.384918 154.184418,75.820862 171.806351,62.775612 
	C174.937576,60.457611 178.384262,58.565746 181.926422,56.222710 
M69.777145,243.287933 
	C56.380386,241.543762 45.261524,252.331360 45.829117,266.522461 
	C46.225853,276.441742 56.385307,282.594940 65.098541,277.817413 
	C68.505417,275.949402 71.237839,272.823975 74.206131,270.190826 
	C77.429855,267.331085 80.262642,263.908203 83.819839,261.575623 
	C89.116821,258.102264 94.705772,261.312805 95.156769,267.602600 
	C95.874298,277.609467 86.977936,286.226776 77.128258,285.498077 
	C75.666267,285.389923 74.042946,287.462555 72.494247,288.526245 
	C73.476608,289.766968 74.386894,291.991882 75.454391,292.070038 
	C79.156418,292.341156 83.378174,292.904053 86.560387,291.477783 
	C95.553024,287.447144 100.550766,279.687469 101.826637,270.117706 
	C103.226616,259.617096 94.792847,251.120422 84.993668,253.223007 
	C81.053085,254.068527 77.307465,256.972321 74.074463,259.662109 
	C70.396385,262.722198 67.739922,267.053253 63.947628,269.915192 
	C62.000866,271.384369 57.535145,272.131134 56.020187,270.926025 
	C53.903790,269.242462 52.163387,265.221832 52.580444,262.565125 
	C53.865585,254.378647 59.189411,250.438385 67.681656,249.964890 
	C71.612724,249.745697 72.622482,247.506577 69.777145,243.287933 
M195.340530,296.652557 
	C193.017746,298.508545 190.774673,300.477844 188.347534,302.185516 
	C186.326904,303.607239 184.090118,304.721741 181.949081,305.972321 
	C182.176376,306.805725 182.403671,307.639099 182.630966,308.472504 
	C185.581696,308.472504 188.861435,309.312134 191.419449,308.309875 
	C198.194046,305.655365 201.384583,299.763397 202.687729,292.907532 
	C203.868027,286.698029 201.613235,281.525391 196.289932,278.319794 
	C186.178345,272.230804 175.854050,266.489929 165.525970,260.770844 
	C163.885803,259.862610 160.915680,258.856506 160.063965,259.605469 
	C158.762558,260.749878 158.770401,263.383118 157.936371,266.428894 
	C150.451218,271.550140 147.416595,278.078888 149.823364,285.508942 
	C152.322754,293.224915 163.725464,301.150909 172.205521,300.384613 
	C175.673019,300.071259 179.402679,298.772888 182.295761,296.845764 
	C187.385620,293.455414 188.413406,287.770020 188.042419,281.795044 
	C196.217896,284.602936 198.398453,288.919250 195.340530,296.652557 
M156.205658,346.045715 
	C154.857574,344.357422 153.544647,342.639557 152.155426,340.985840 
	C145.595047,333.176331 145.587601,333.182587 150.356812,324.215088 
	C156.017578,313.571259 156.052994,313.379059 168.123962,315.603607 
	C173.254654,316.549164 175.595840,314.688080 176.560867,309.497559 
	C175.076447,309.076752 173.722549,308.488831 172.319382,308.326355 
	C155.967163,306.432770 139.595459,304.700439 123.260300,302.672485 
	C120.100227,302.280182 118.831017,303.711853 117.340767,305.951294 
	C115.624420,308.530518 116.759338,310.201721 118.375648,312.101471 
	C126.889977,322.109009 135.344452,332.167450 143.836685,342.193817 
	C146.798584,345.690796 149.809036,349.146637 153.354111,353.268707 
	C154.640839,350.487457 155.521057,348.584930 156.205658,346.045715 
M115.323593,256.154175 
	C116.913673,257.063660 118.496948,257.985321 120.095100,258.880402 
	C125.267403,261.777252 125.733894,261.573792 127.477020,255.331070 
	C125.294250,254.068192 123.006340,252.758881 120.732773,251.425125 
	C118.337524,250.019974 115.955963,248.591476 113.090736,246.889404 
	C114.437614,245.969391 115.220436,245.443375 115.994423,244.904663 
	C122.570679,240.327484 124.557091,234.045670 121.648605,226.556763 
	C119.053833,219.875595 113.776779,215.919403 107.380157,213.410934 
	C93.767044,208.072495 83.039932,215.622986 83.500839,228.780975 
	C81.231956,231.112549 79.557190,232.833588 77.429482,235.020081 
	C90.565376,242.354523 102.618355,249.084335 115.323593,256.154175 
M178.088242,227.402023 
	C167.861465,237.063232 166.182388,249.022491 174.358261,254.640457 
	C177.159363,252.877914 178.754196,251.144653 176.371307,247.505661 
	C173.929352,243.776474 175.398041,237.541306 179.606232,234.684128 
	C181.541626,233.370056 185.639404,232.720642 187.209045,233.874710 
	C191.416901,236.968536 187.191864,240.622147 186.563232,244.059067 
	C185.764999,248.423157 184.322174,252.741211 184.124954,257.122650 
	C183.936813,261.301849 186.880966,264.061035 190.685318,265.688446 
	C194.579620,267.354340 198.208160,266.855774 201.370132,264.065918 
	C205.531143,260.394592 208.134628,255.902313 208.081238,250.159561 
	C208.064713,248.381668 208.078674,246.603470 208.078674,244.825424 
	C208.457718,245.046021 208.836761,245.266632 209.215820,245.487244 
	C211.266739,243.671265 213.317657,241.855286 215.298309,240.101532 
	C205.924744,235.254425 197.683762,231.012604 189.462601,226.732758 
	C185.808914,224.830673 182.224258,224.356064 178.088242,227.402023 
M228.430893,189.066360 
	C232.050003,191.001221 235.669113,192.936096 239.763199,195.124893 
	C240.786026,192.215042 244.163391,189.969681 239.917038,187.635864 
	C232.199448,183.394196 224.396942,179.302475 216.561081,175.282272 
	C212.332489,173.112747 208.486008,174.333557 205.025635,177.228653 
	C199.958939,181.467667 198.844513,187.155304 199.313736,192.267059 
	C197.175156,194.210373 195.590866,195.392212 194.426086,196.898438 
	C194.151505,197.253540 195.041443,199.146088 195.816269,199.579529 
	C206.231781,205.406281 216.721909,211.099686 227.116882,216.784271 
	C231.031174,211.773056 230.944748,211.351913 226.197418,208.626923 
	C220.286667,205.234161 214.230499,202.053406 208.565918,198.286636 
	C204.308151,195.455338 203.611328,189.695328 206.285080,185.393448 
	C208.680222,181.539825 212.534134,180.734924 217.692978,183.258133 
	C221.125854,184.937164 224.423630,186.892426 228.430893,189.066360 
M109.644867,179.940887 
	C107.257271,181.561447 105.504913,183.696533 108.851532,185.645050 
	C119.030785,191.571823 129.401688,197.169449 139.584442,202.832108 
	C143.829407,197.934174 143.793747,197.584000 139.001938,194.758347 
	C137.424637,193.828232 135.754440,193.051483 134.203079,192.082352 
	C129.558441,189.180817 124.731133,186.506500 120.400673,183.188141 
	C117.025124,180.601532 116.860374,174.564240 119.486267,170.881546 
	C122.231247,167.031830 125.906021,167.240677 129.738068,168.892715 
	C131.259216,169.548477 132.661041,170.479584 134.122192,171.276154 
	C140.080383,174.524399 146.040512,177.769073 151.883896,180.951859 
	C155.938339,176.181473 155.948746,175.657913 151.478729,173.086868 
	C144.983002,169.350693 138.472427,165.627106 131.831284,162.160461 
	C123.928024,158.034973 116.400307,161.065933 113.489265,169.552444 
	C112.650818,171.996780 112.837448,174.776031 112.270653,177.339050 
	C112.063751,178.274673 111.033592,179.028244 109.644867,179.940887 
M221.190247,228.599915 
	C220.778473,227.098755 220.823868,225.101608 219.853134,224.206909 
	C218.189667,222.673767 215.898544,221.815933 213.857468,220.699173 
	C205.587906,216.174484 197.313187,211.659195 188.833008,207.027161 
	C187.261246,209.938263 183.984283,212.156693 188.617538,214.668762 
	C197.966888,219.737869 207.246048,224.938934 216.667313,229.869339 
	C217.671570,230.394897 219.426666,229.485703 221.190247,228.599915 
M109.933578,197.576187 
	C107.190659,196.121765 104.447739,194.667358 101.605370,193.160217 
	C99.421555,196.035049 97.217216,198.319580 101.522591,200.689285 
	C110.549744,205.657883 119.538681,210.695984 128.535446,215.719635 
	C130.583847,216.863434 132.351303,217.582275 133.935623,214.842346 
	C135.557922,212.036789 133.947388,211.032532 131.882202,209.886398 
	C124.761932,205.934784 117.679008,201.915878 109.933578,197.576187 
M91.401726,194.608994 
	C92.362114,192.889221 94.283585,190.979660 93.992744,189.507004 
	C93.739128,188.222794 91.074127,186.913513 89.311775,186.631012 
	C88.370468,186.480133 86.449608,188.285751 86.072746,189.539566 
	C84.897606,193.449310 89.083992,192.901550 91.401726,194.608994 
M173.893875,206.484573 
	C175.815155,207.011597 177.751205,207.930267 179.649902,207.858643 
	C180.338287,207.832687 181.812790,204.749557 181.419464,204.250290 
	C180.021484,202.475769 177.973145,201.213608 175.144516,198.927795 
	C174.367859,202.092255 173.897079,204.010406 173.893875,206.484573 
z"/>
<path fill="#FECB44" opacity="1.000000" stroke="none" 
	d="
M536.349609,666.860718 
	C500.475830,605.050110 464.932831,543.143921 429.394348,481.235107 
	C427.572144,478.060822 425.789032,474.864075 424.089966,471.074738 
	C431.898865,464.715912 440.179077,459.581757 447.210266,453.094025 
	C474.001099,428.373840 487.451019,397.494995 488.534332,360.984314 
	C551.734070,361.046539 614.472412,361.179260 677.210754,361.265472 
	C687.186340,361.279175 697.162231,361.083679 707.137939,360.984924 
	C708.393127,360.982483 709.648315,360.980042 711.372131,361.452698 
	C711.890686,370.294220 711.940613,378.660645 711.990479,387.027100 
	C710.701477,419.449005 704.082520,450.851837 692.576660,481.084106 
	C668.394165,544.624817 629.664062,597.627625 575.658020,639.135437 
	C563.040588,648.832764 549.692993,657.580139 536.349609,666.860718 
M668.496521,485.973907 
	C672.781799,481.018921 675.366943,475.401337 675.172607,468.718231 
	C674.881897,458.720306 664.937073,452.475555 656.086914,457.093079 
	C652.793030,458.811615 650.123047,461.775574 647.281616,464.298950 
	C643.934509,467.271332 641.027710,470.854309 637.357849,473.321594 
	C631.871887,477.009979 626.166992,473.700043 625.828186,467.107147 
	C625.312195,457.067078 633.900696,449.033905 644.151855,449.570496 
	C645.526550,449.642426 647.422424,447.930756 648.236633,446.549683 
	C648.566711,445.989868 646.709290,443.062408 645.738525,443.003479 
	C641.875977,442.769073 637.575562,442.265900 634.161194,443.649139 
	C626.432800,446.780121 622.316406,453.597656 619.853027,461.274994 
	C617.497192,468.617218 620.067627,476.073669 625.849304,479.859894 
	C631.427551,483.512970 638.106995,482.843964 644.299744,477.876068 
	C645.978394,476.529419 647.468445,474.933929 648.961548,473.372833 
	C651.604187,470.609894 653.820251,467.243469 656.913818,465.175079 
	C659.025940,463.762939 663.310913,462.833099 664.856384,464.009766 
	C667.005554,465.646027 668.828796,469.643341 668.454407,472.300812 
	C667.305725,480.454346 661.695190,484.521179 653.475281,485.207764 
	C651.935608,485.336365 650.568420,487.529907 649.121704,488.770569 
	C650.485718,489.862823 651.727478,491.661285 653.235352,491.922363 
	C659.067017,492.931946 664.039795,490.933197 668.496521,485.973907 
M542.339233,458.120789 
	C546.718262,460.519073 551.052063,463.006104 555.499878,465.269257 
	C557.136047,466.101837 560.233154,467.290771 560.606079,466.788727 
	C561.850952,465.112640 562.164185,462.744476 563.211914,459.456146 
	C570.532166,454.519714 573.599548,447.893097 571.161865,440.447601 
	C568.637146,432.736389 557.203613,424.825195 548.749084,425.618713 
	C545.282776,425.944061 541.558472,427.251282 538.670593,429.185425 
	C533.603271,432.579224 532.563782,438.255524 532.977173,444.249756 
	C526.461365,441.927338 523.612427,438.395325 524.047424,433.765991 
	C524.528381,428.647949 528.266541,425.171417 533.841125,423.603363 
	C535.794006,423.054047 537.291077,420.884430 538.996277,419.454681 
	C538.770020,418.908234 538.543762,418.361816 538.317505,417.815399 
	C535.947876,417.593353 533.432678,416.748352 531.235107,417.262115 
	C523.616821,419.043274 520.461121,425.103088 518.590088,431.939178 
	C516.927124,438.015045 518.619324,443.402008 523.771423,446.956726 
	C529.503845,450.911804 535.694397,454.202942 542.339233,458.120789 
M573.650696,379.840363 
	C571.860046,377.721405 570.069336,375.602448 568.238403,373.435852 
	C563.587158,378.811737 563.587158,378.811737 568.932190,385.126495 
	C575.443237,392.818756 575.443237,392.818787 570.817200,401.456329 
	C564.958069,412.396240 564.958069,412.396240 552.734619,410.455994 
	C547.036682,409.551514 546.207458,410.146301 544.591553,416.670471 
	C546.158020,417.042572 547.704895,417.578400 549.292480,417.761139 
	C565.312500,419.605469 581.352783,421.284119 597.352966,423.284088 
	C600.632324,423.693970 602.830688,422.740875 603.505249,419.878723 
	C603.938782,418.039276 603.583313,415.306702 602.438477,413.914001 
	C593.146851,402.610718 583.584900,391.529663 573.650696,379.840363 
M635.845947,495.646515 
	C624.216980,489.146912 612.587280,482.648590 600.959351,476.147156 
	C595.729675,473.223114 595.352661,473.377350 593.509705,479.550964 
	C598.121216,482.316925 602.819946,485.135162 607.819214,488.133667 
	C597.249573,495.379120 594.892212,504.435120 601.810791,512.664062 
	C605.085083,516.558594 609.819885,519.885742 614.568115,521.753662 
	C627.650696,526.900269 638.062927,518.951172 637.471741,506.117096 
	C639.695923,503.911133 641.414673,502.206543 643.525146,500.113403 
	C640.476807,498.345795 638.473816,497.184326 635.845947,495.646515 
M542.603882,490.184753 
	C540.121338,493.506775 536.513916,494.524414 533.539673,492.102661 
	C532.265320,491.065033 533.188049,487.160004 533.374695,484.576782 
	C533.454285,483.475250 534.375854,482.459473 534.620300,481.340363 
	C535.498169,477.322418 536.739990,473.298431 536.917664,469.236206 
	C537.111084,464.813049 534.194153,461.923492 530.178223,460.261993 
	C526.051697,458.554688 522.365601,459.317169 519.154236,462.373688 
	C515.258118,466.082062 512.893799,470.505463 512.918091,476.014984 
	C512.925842,477.779663 512.919312,479.544403 512.919312,481.309113 
	C512.497009,481.088440 512.074707,480.867767 511.652435,480.647095 
	C509.645325,482.355408 507.638214,484.063690 505.564880,485.828339 
	C514.832336,490.621521 522.980591,495.011475 531.309265,499.027374 
	C533.560364,500.112854 536.511353,500.856262 538.877380,500.397369 
	C547.896729,498.647827 554.836670,482.585480 550.214966,474.684937 
	C549.426270,473.336761 548.167969,472.263336 547.126648,471.062988 
	C546.556274,471.075043 545.985962,471.087067 545.415588,471.099121 
	C544.916443,473.128998 543.335938,475.841675 544.110046,477.067627 
	C547.066467,481.749939 545.689758,485.597107 542.603882,490.184753 
M590.303528,573.419434 
	C594.560730,575.216125 598.712524,575.473572 602.561401,572.433533 
	C608.060242,568.090149 609.170959,562.049561 608.759033,556.839966 
	C610.987976,554.730225 612.390564,553.402649 613.793091,552.075134 
	C612.523132,550.734253 611.359924,549.264954 609.949524,548.093018 
	C608.814758,547.150085 607.389221,546.552002 606.078308,545.826843 
	C597.811768,541.254028 589.541260,536.688416 581.382141,532.181213 
	C577.176514,537.089478 577.220947,537.408997 582.005615,540.261536 
	C587.857117,543.750183 593.919983,546.937927 599.485229,550.835876 
	C603.863037,553.902039 604.413330,559.918518 601.517090,564.140320 
	C599.122681,567.630554 595.165222,568.200500 589.901733,565.441040 
	C584.005737,562.349976 578.255005,558.982544 572.414612,555.783875 
	C570.556702,554.766357 568.711792,553.296448 566.974548,556.251038 
	C565.251953,559.180725 566.804810,560.438171 569.082825,561.691345 
	C575.938965,565.463196 582.764404,569.290771 590.303528,573.419434 
M479.503540,534.211975 
	C479.984100,535.584717 480.058167,537.682556 481.009338,538.215759 
	C488.834412,542.601990 496.782501,546.775940 504.778320,550.847290 
	C508.623291,552.805054 512.247009,551.697815 515.483948,549.172546 
	C520.868408,544.971924 522.209656,539.191101 521.670715,533.673096 
	C523.689880,531.910950 525.361511,530.754700 526.531616,529.216919 
	C526.822388,528.834717 525.757629,526.742798 524.864319,526.241455 
	C514.588257,520.474854 504.225128,514.863525 493.960358,509.252014 
	C489.935272,514.050049 490.017090,514.647278 494.686035,517.305420 
	C500.320923,520.513489 506.087128,523.518250 511.537903,527.014221 
	C516.491760,530.191528 517.605896,535.792725 514.777161,540.489380 
	C512.277283,544.640076 508.290955,545.338501 502.534882,542.338135 
	C496.636230,539.263489 490.832703,536.004272 485.022614,532.762939 
	C483.011383,531.640930 481.124237,530.455261 479.503540,534.211975 
M528.386353,517.018005 
	C530.451843,518.203186 532.314941,519.568848 534.015930,516.242065 
	C535.598389,513.146851 533.907227,512.138489 531.662354,510.931244 
	C523.026428,506.287079 514.424072,501.580231 505.829865,496.859100 
	C503.616882,495.643463 501.562592,493.890503 499.728210,497.470062 
	C498.069641,500.706543 500.415771,501.549652 502.448914,502.676727 
	C510.879974,507.350342 519.317200,512.012756 528.386353,517.018005 
M600.638977,523.859619 
	C597.434631,522.100525 594.322449,520.119324 590.966064,518.726562 
	C590.039795,518.342224 587.799988,519.379639 587.237366,520.373169 
	C586.718018,521.290344 587.183899,523.806213 587.995300,524.278320 
	C598.301086,530.274658 608.747803,536.028992 619.065063,541.792664 
	C623.111023,536.948608 623.011414,536.318237 618.268555,533.678650 
	C612.605286,530.526855 606.950378,527.359924 600.638977,523.859619 
M635.395020,544.453613 
	C633.070801,543.375061 630.772034,542.222412 628.361938,541.393494 
	C628.209839,541.341187 626.334412,544.408813 626.741516,544.993286 
	C627.762573,546.459045 629.583984,548.096985 631.180054,548.201172 
	C632.453064,548.284424 633.867126,546.208130 635.395020,544.453613 
M546.426819,519.137878 
	C544.571899,518.927856 542.587402,518.264954 540.928406,518.739685 
	C540.300049,518.919556 539.672180,522.388062 540.373352,523.178650 
	C541.507629,524.457520 543.740173,524.762268 545.508972,525.478394 
	C545.997009,523.518982 546.484985,521.559631 546.426819,519.137878 
z"/>
<path fill="#D1233D" opacity="1.000000" stroke="none" 
	d="
M302.999878,470.978149 
	C295.398224,483.837189 287.740997,496.663757 280.208679,509.563293 
	C270.409698,526.344482 260.702728,543.179504 250.969086,559.998840 
	C234.496704,588.462463 218.016342,616.921509 201.579681,645.405823 
	C197.019318,653.308777 192.601303,661.294006 188.062622,669.594238 
	C186.403397,668.859558 184.799515,667.772217 183.211044,666.346313 
	C184.694916,665.028625 186.747589,664.390564 187.547470,663.020935 
	C216.702148,613.098450 245.737274,563.106201 274.796539,513.127930 
	C283.062378,498.911774 291.351715,484.709229 300.216125,470.237305 
	C301.529144,469.972839 302.256256,469.971497 302.987915,470.222290 
	C302.994904,470.642334 302.997406,470.810242 302.999878,470.978149 
z"/>
<path fill="#C4CFCB" opacity="1.000000" stroke="none" 
	d="
M711.209106,335.927429 
	C707.214844,297.072510 698.229370,259.443481 683.550232,223.209244 
	C682.805542,221.370895 682.219238,219.468369 681.804871,217.255478 
	C685.686951,225.223526 690.147583,233.279114 692.788269,241.892654 
	C698.308350,259.898468 703.554138,278.048370 707.581848,296.430634 
	C710.267151,308.686005 710.654541,321.444885 711.929810,334.606201 
	C711.617493,335.483246 711.424072,335.714386 711.209106,335.927429 
z"/>
<path fill="#C4B692" opacity="1.000000" stroke="none" 
	d="
M712.285950,386.722900 
	C711.940613,378.660645 711.890686,370.294220 711.748169,361.470276 
	C711.882263,360.725525 712.109009,360.438324 712.601929,360.074219 
	C712.772583,368.804443 712.677002,377.611572 712.285950,386.722900 
z"/>
<path fill="#AAC0BA" opacity="1.000000" stroke="none" 
	d="
M711.166138,336.369324 
	C711.424072,335.714386 711.617493,335.483246 711.931519,335.057983 
	C712.366333,340.580750 712.658875,346.279541 712.894287,352.436340 
	C712.265808,347.533325 711.694519,342.172272 711.166138,336.369324 
z"/>
<path fill="#C4CFCB" opacity="1.000000" stroke="none" 
	d="
M682.066406,216.598846 
	C680.531738,214.031067 678.960266,211.080292 677.681763,207.783218 
	C679.326416,210.363235 680.677979,213.289551 682.066406,216.598846 
z"/>
<path fill="#C4CFCB" opacity="1.000000" stroke="none" 
	d="
M677.050659,205.639175 
	C676.553284,205.371841 676.015991,204.774139 675.721008,203.993713 
	C676.312439,204.310287 676.661621,204.809555 677.050659,205.639175 
z"/>
<path fill="#C4CFCB" opacity="1.000000" stroke="none" 
	d="
M678.248657,207.310730 
	C677.570190,207.263367 677.176331,206.979141 676.900513,206.299438 
	C677.523438,206.293930 678.028320,206.683899 678.248657,207.310730 
z"/>
<path fill="#C69F36" opacity="1.000000" stroke="none" 
	d="
M172.698669,361.288330 
	C192.004333,361.112823 211.651978,361.055054 231.299637,360.997375 
	C237.890564,360.978027 237.636917,360.960388 238.089783,354.494537 
	C240.329285,322.519135 252.154541,294.711548 275.301788,272.303253 
	C282.422180,265.410156 290.807343,259.823517 298.813507,253.376831 
	C299.013641,253.115005 299.349365,253.177460 299.620972,253.545029 
	C301.397827,256.675629 302.860870,259.462616 304.414948,262.197906 
	C316.694336,283.810608 328.991058,305.413422 341.076263,327.303650 
	C328.936493,335.889587 323.396179,347.560913 322.600403,361.883636 
	C322.387085,361.921875 321.989716,362.094879 321.526489,362.022888 
	C312.898895,361.924469 304.734497,361.868866 296.570129,361.877441 
	C277.085510,361.897919 257.600922,361.948639 238.116302,361.987152 
	C219.072403,361.860168 200.028458,361.738861 180.984650,361.599640 
	C178.336319,361.580292 175.688629,361.472778 172.698669,361.288330 
z"/>
<path fill="#00926A" opacity="1.000000" stroke="none" 
	d="
M238.082947,362.446869 
	C257.600922,361.948639 277.085510,361.897919 296.570129,361.877441 
	C304.734497,361.868866 312.898895,361.924469 321.651672,362.192566 
	C322.422882,362.649475 322.628326,362.840393 322.951447,363.371857 
	C323.033142,364.487427 323.019806,365.238220 322.794312,366.307007 
	C321.876678,376.155945 325.552856,384.092987 331.628845,391.092224 
	C334.348846,394.225525 337.281616,397.174103 340.023010,400.534851 
	C335.780609,408.047485 331.675964,415.257019 327.476501,422.410889 
	C318.495667,437.709869 309.465790,452.980072 300.455994,468.262054 
	C294.595581,464.562561 288.170746,461.519928 282.970886,457.051727 
	C258.318085,435.867767 243.336441,409.185059 239.051849,376.783508 
	C238.444962,372.193939 238.370483,367.533966 238.082947,362.446869 
z"/>
<path fill="#06664B" opacity="1.000000" stroke="none" 
	d="
M201.101303,500.914062 
	C197.395477,494.048126 193.782318,487.130066 189.956406,480.331726 
	C186.495651,474.182251 186.576859,473.758209 193.922577,471.266754 
	C199.386185,480.804657 204.970718,490.413849 210.390320,500.115173 
	C211.711227,502.479675 212.490402,505.146851 213.518661,507.674866 
	C210.392303,508.418884 207.106125,510.170166 204.171707,509.704620 
	C197.323166,508.617950 190.656387,506.413666 183.892120,504.759705 
	C176.983841,503.070557 170.108185,501.108673 163.101715,500.008362 
	C158.256622,499.247498 154.432846,501.850189 152.199905,506.339813 
	C149.664825,511.436981 151.687332,515.750977 154.815369,519.707336 
	C157.811462,523.496887 161.957153,524.801025 166.415863,523.239929 
	C170.174957,521.923767 171.636078,523.467773 172.579529,526.605164 
	C173.770782,530.566528 170.505249,530.549438 168.294647,531.129028 
	C160.323486,533.219116 154.215805,529.785461 149.456329,523.848633 
	C144.130127,517.204895 141.894791,509.661346 145.835693,501.507629 
	C149.137558,494.676086 155.185501,490.813202 162.474060,492.058777 
	C172.875198,493.836212 183.011765,497.153503 193.271576,499.772919 
	C195.511307,500.344727 197.794449,500.746613 200.538391,501.264771 
	C201.019211,501.302765 201.355423,501.231171 201.355423,501.231171 
	C201.355423,501.231171 201.101303,500.914062 201.101303,500.914062 
z"/>
<path fill="#06674C" opacity="1.000000" stroke="none" 
	d="
M170.647247,443.648834 
	C168.640945,447.643219 166.808563,451.307129 164.479721,455.963776 
	C170.079544,456.394073 174.648422,457.098877 179.200882,457.005280 
	C184.865875,456.888855 188.383026,459.082947 189.907043,465.534058 
	C187.896057,465.534058 186.069016,465.651672 184.261673,465.512756 
	C177.965836,465.028931 171.668823,464.533661 165.388596,463.884705 
	C162.262161,463.561615 160.478699,464.781616 159.207001,467.618011 
	C156.242691,474.229645 153.041504,480.735046 149.796204,487.578888 
	C145.225708,482.923462 144.569824,478.837952 147.613846,473.400146 
	C153.264313,463.306244 152.954956,463.000671 141.679840,461.615051 
	C136.419907,460.968628 131.221664,460.720062 130.526474,452.760956 
	C136.727463,453.350342 142.747299,453.760529 148.720688,454.530762 
	C156.433838,455.525360 156.428101,455.582642 159.619949,448.629669 
	C162.582703,442.175751 165.695190,435.790619 168.828308,429.192902 
	C174.611267,434.798309 174.701920,435.622040 170.647247,443.648834 
z"/>
<path fill="#9E1D30" opacity="1.000000" stroke="none" 
	d="
M300.363831,468.542786 
	C309.465790,452.980072 318.495667,437.709869 327.476501,422.410889 
	C331.675964,415.257019 335.780609,408.047485 340.288116,400.338623 
	C341.450867,398.505676 342.253693,397.197357 343.414917,395.958618 
	C356.266693,402.833740 368.905518,402.184692 381.752930,397.110535 
	C382.249542,398.593750 382.630646,399.733582 382.649475,400.962585 
	C370.784454,406.566040 359.122345,407.331696 347.061920,402.749603 
	C345.600708,402.194458 342.964722,403.249146 341.567810,404.400482 
	C339.993561,405.697968 339.168457,407.927856 338.081696,409.789642 
	C326.375000,429.845581 314.680908,449.908875 302.983398,469.970154 
	C302.256256,469.971497 301.529144,469.972839 300.438904,469.978302 
	C300.141083,469.596100 300.206360,469.209808 300.363831,468.542786 
z"/>
<path fill="#01926B" opacity="1.000000" stroke="none" 
	d="
M422.011932,251.190201 
	C436.795227,257.802673 448.499786,268.501434 458.730316,280.577271 
	C477.779724,303.062714 487.358154,329.395416 487.993500,359.439087 
	C487.945038,359.972168 487.821045,360.153625 487.374542,360.109192 
	C459.012817,360.002899 431.097626,359.941010 403.102814,359.473053 
	C402.293304,349.749298 399.414368,341.161774 392.775574,334.485077 
	C388.774323,330.461029 383.800232,327.404266 379.428436,323.631104 
	C385.517975,313.145874 391.393860,302.913788 397.378479,292.745728 
	C405.546265,278.868378 413.796875,265.039734 422.011932,251.190201 
z"/>
<path fill="#C61C35" opacity="1.000000" stroke="none" 
	d="
M421.965637,250.990448 
	C413.796875,265.039734 405.546265,278.868378 397.378479,292.745728 
	C391.393860,302.913788 385.517975,313.145874 379.025757,323.665009 
	C365.571442,318.941437 353.223419,320.490234 341.282471,327.019287 
	C328.991058,305.413422 316.694336,283.810608 304.414948,262.197906 
	C302.860870,259.462616 301.397827,256.675629 299.788513,253.578186 
	C321.440765,240.692062 344.859680,234.648834 369.955444,236.117981 
	C385.328461,237.017914 400.229584,240.432770 414.260315,247.074860 
	C416.513000,248.141266 418.813538,249.106674 421.424744,250.266327 
	C421.757507,250.413895 421.919312,250.790710 421.965637,250.990448 
z"/>
<path fill="#06664B" opacity="1.000000" stroke="none" 
	d="
M531.671509,230.322174 
	C538.272034,232.275848 544.411194,234.569565 550.757080,235.779724 
	C560.082031,237.558044 566.018066,233.950058 567.383484,226.601517 
	C568.807983,218.934952 560.895996,210.422714 553.534668,212.515656 
	C548.098694,214.061188 546.189392,212.229111 545.288330,206.827179 
	C546.892944,206.124725 548.579163,205.046494 550.413940,204.642609 
	C558.072632,202.956711 564.249390,205.858978 568.971436,211.682007 
	C574.290955,218.241776 577.172974,225.719681 573.209412,233.927155 
	C570.017395,240.537170 564.307434,244.998398 556.809814,243.923874 
	C547.511414,242.591278 538.413269,239.830688 529.250732,237.596085 
	C525.706726,236.731766 522.223328,235.618683 518.712341,234.618927 
	C518.365723,235.144409 518.019104,235.669876 517.672485,236.195358 
	C519.782593,239.875717 521.892395,243.556259 524.002991,247.236328 
	C525.742981,250.270248 527.469238,253.312119 529.227600,256.335358 
	C532.561035,262.066620 532.410522,262.433197 525.075806,264.847504 
	C518.213684,253.090027 511.283722,241.216187 504.051910,228.825226 
	C513.819153,223.903091 522.546204,227.408493 531.671509,230.322174 
z"/>
<path fill="#06674B" opacity="1.000000" stroke="none" 
	d="
M559.606689,268.733337 
	C562.826050,261.778564 565.875061,255.178101 569.018616,248.372925 
	C574.674805,254.478867 574.808777,255.295074 571.611023,261.776276 
	C569.948730,265.145294 568.299561,268.520813 566.082642,273.038361 
	C571.485718,273.519745 575.694031,274.071411 579.916809,274.225555 
	C585.036804,274.412476 587.744141,277.028168 589.042358,282.886597 
	C583.395386,282.440796 578.206238,282.211029 573.064941,281.586945 
	C563.087952,280.375854 563.088013,280.278748 558.853638,289.239990 
	C556.119019,295.027283 553.422668,300.832672 550.464417,307.152893 
	C546.418396,302.962036 544.694336,299.446503 547.546448,294.567108 
	C550.035889,290.308014 551.914368,285.691803 554.664307,279.985138 
	C548.975098,279.585449 544.263123,278.759918 539.621399,279.051727 
	C533.633484,279.428162 530.728577,276.630402 529.068359,270.306213 
	C534.889465,270.673706 540.377075,271.002502 545.861877,271.373779 
	C548.684082,271.564819 551.550110,272.244080 554.303040,271.917145 
	C556.100708,271.703674 557.730957,270.079742 559.606689,268.733337 
z"/>
<path fill="#A5B08B" opacity="1.000000" stroke="none" 
	d="
M706.743286,360.844666 
	C697.162231,361.083679 687.186340,361.279175 677.210754,361.265472 
	C614.472412,361.179260 551.734070,361.046539 488.490906,360.925934 
	C487.986053,360.922699 487.866272,360.840118 487.869263,360.667938 
	C487.872284,360.495758 487.821045,360.153625 487.821045,360.153625 
	C487.821045,360.153625 487.945038,359.972168 488.013855,359.885712 
	C523.379517,359.914185 558.676514,360.003906 593.973206,360.150970 
	C631.431824,360.307068 668.890137,360.517639 706.743286,360.844666 
z"/>
<path fill="#B41028" opacity="1.000000" stroke="none" 
	d="
M415.408142,143.031891 
	C429.232330,139.477249 439.321716,147.226578 439.694305,161.144272 
	C439.775909,164.192642 438.149170,164.837158 435.677521,164.839005 
	C429.028473,164.843979 422.378845,164.801071 415.730621,164.877899 
	C411.018768,164.932343 410.183014,166.331879 412.066040,170.669647 
	C415.409271,178.371094 425.756500,179.711853 430.692535,172.861694 
	C432.901031,169.796799 435.214478,169.419205 439.520325,171.219666 
	C437.587219,174.055634 436.275513,177.152847 433.992554,179.126633 
	C423.974243,187.788025 407.790100,182.368790 404.636475,169.513443 
	C401.738342,157.699585 405.569641,147.978546 415.408142,143.031891 
M429.020599,158.956192 
	C432.766418,158.700302 432.245331,156.348114 431.361115,153.986755 
	C429.604980,149.296860 424.523499,146.908417 419.003021,148.071793 
	C414.497589,149.021271 411.635315,153.104507 411.821350,158.981857 
	C417.230194,158.981857 422.674469,158.981857 429.020599,158.956192 
z"/>
<path fill="#B40F28" opacity="1.000000" stroke="none" 
	d="
M344.302063,96.263626 
	C344.130951,93.023750 343.914581,90.200172 344.011719,87.387405 
	C344.368408,77.059570 351.661163,70.034462 361.936371,69.998100 
	C372.020050,69.962410 379.493408,77.217812 380.020203,87.349396 
	C380.422455,95.086441 379.838867,102.431892 372.835968,107.425362 
	C361.701416,115.364960 347.979919,110.147446 344.302063,96.263626 
M351.036682,86.072800 
	C351.011871,88.729103 350.804504,91.398766 350.997772,94.039108 
	C351.500122,100.902199 355.815369,105.128593 362.054504,105.098808 
	C368.268738,105.069145 372.451477,100.818108 372.988251,93.890274 
	C373.129089,92.072456 373.113770,90.235657 373.059540,88.410866 
	C372.857849,81.625160 369.191284,76.732018 363.808197,75.989082 
	C357.495514,75.117851 353.550659,77.998718 351.036682,86.072800 
z"/>
<path fill="#B31027" opacity="1.000000" stroke="none" 
	d="
M357.831543,174.651794 
	C352.897888,181.768219 345.992126,183.956970 338.373352,182.600983 
	C330.583893,181.214645 326.212952,175.847443 324.696289,167.933441 
	C322.797424,158.025299 325.589600,148.861374 332.401062,144.852524 
	C339.154602,140.877792 346.117920,140.735794 352.710388,145.005112 
	C359.861084,149.635910 361.053772,157.129501 360.683289,164.815094 
	C360.528595,168.024353 358.962524,171.165573 357.831543,174.651794 
M336.285980,175.514999 
	C343.010101,178.479980 349.044861,177.320969 351.608459,172.185547 
	C354.762329,165.867859 355.025665,159.338623 351.557983,152.995209 
	C347.757355,146.042648 337.413849,145.918594 333.307861,152.698212 
	C329.410950,159.132568 330.491211,169.351334 336.285980,175.514999 
z"/>
<path fill="#B41027" opacity="1.000000" stroke="none" 
	d="
M375.884857,175.374756 
	C379.434906,176.066376 382.765839,177.184494 385.861877,176.723862 
	C387.734833,176.445206 390.317017,173.875870 390.584900,172.043915 
	C390.809296,170.509171 388.496307,167.777878 386.678436,166.940353 
	C382.785217,165.146683 378.457977,164.317215 374.360168,162.939240 
	C370.046600,161.488724 367.216888,158.621948 367.050964,153.866913 
	C366.882782,149.048172 369.160736,145.686768 373.569427,143.631027 
	C380.102661,140.584641 389.899170,141.597443 393.525085,146.339478 
	C394.753937,147.946579 395.682404,151.693893 394.799744,152.634186 
	C392.478760,155.106674 390.405457,153.548706 388.633850,150.777588 
	C386.489990,147.424179 378.595154,146.850616 375.405426,149.355911 
	C372.491089,151.644897 372.888580,154.748337 376.624084,156.235382 
	C380.475525,157.768585 384.561859,158.700394 388.500488,160.028458 
	C395.607849,162.424942 398.529968,166.096634 397.941101,171.677765 
	C397.357513,177.208450 392.370422,181.927948 386.126465,182.858429 
	C375.375763,184.460495 367.806396,179.967239 366.475006,171.073624 
	C371.768250,167.323730 373.018707,172.727097 375.884857,175.374756 
z"/>
<path fill="#B20E28" opacity="1.000000" stroke="none" 
	d="
M331.393158,79.412956 
	C323.949982,86.907959 326.329559,96.100441 326.023438,104.723854 
	C325.927490,107.425606 326.339264,110.573326 322.160614,109.840851 
	C320.982788,109.634392 320.002319,108.039757 319.051666,106.974419 
	C318.798126,106.690308 318.906158,105.994690 318.989014,105.512192 
	C321.342041,91.810097 316.004913,80.659615 307.706726,70.305504 
	C304.448700,66.240273 301.924500,61.586884 298.807434,56.804451 
	C303.877594,55.341328 307.107880,55.696053 309.656403,60.084396 
	C313.563507,66.812149 318.060364,73.197418 322.750366,80.410004 
	C323.946136,78.919739 324.895538,77.912453 325.644379,76.773315 
	C329.208008,71.352425 332.750610,65.917023 336.235565,60.445301 
	C339.324463,55.595451 339.829620,55.358185 346.828644,56.809429 
	C341.631378,64.419876 336.614441,71.766258 331.393158,79.412956 
z"/>
<path fill="#B20F28" opacity="1.000000" stroke="none" 
	d="
M412.145203,84.998192 
	C412.154388,81.172188 411.821594,77.786957 412.338654,74.536949 
	C412.548340,73.219093 414.609802,72.195877 415.828674,71.038605 
	C416.884674,72.181274 418.831604,73.303993 418.857697,74.469711 
	C419.096222,85.123383 419.080536,95.785957 418.891449,106.441536 
	C418.870239,107.637123 416.980042,109.921783 416.530579,109.787010 
	C414.869568,109.288956 413.449554,107.987320 411.353485,106.600349 
	C407.336914,110.192589 401.915924,112.530693 395.369019,109.989082 
	C390.933411,108.267143 388.133026,105.288963 387.954376,100.355522 
	C387.653381,92.045013 387.413208,83.732178 387.182159,75.419350 
	C387.119080,73.149513 387.218719,71.067780 390.440430,70.987473 
	C393.904022,70.901138 394.066803,73.022507 394.056458,75.562286 
	C394.029327,82.224014 393.948303,88.889099 394.117615,95.547020 
	C394.284058,102.091064 397.044098,105.032822 402.554840,105.010506 
	C407.907349,104.988831 411.667236,101.295616 412.013458,95.482994 
	C412.211243,92.162285 412.110992,88.823807 412.145203,84.998192 
z"/>
<path fill="#B61128" opacity="1.000000" stroke="none" 
	d="
M285.130585,136.100677 
	C285.131195,134.953079 285.129211,134.288147 285.132294,133.623245 
	C285.145416,130.783676 284.666351,127.833794 289.190460,127.932030 
	C293.449646,128.024521 292.881592,130.863937 292.887329,133.467239 
	C292.914062,145.601883 293.111176,157.742096 292.797546,169.868683 
	C292.670288,174.789917 294.393890,176.305969 299.104431,175.982513 
	C304.067841,175.641693 309.073303,175.872055 314.059601,175.925385 
	C316.318512,175.949539 319.423920,175.515579 318.722992,179.096207 
	C318.484314,180.315460 315.833984,181.827286 314.236786,181.886444 
	C306.434692,182.175339 298.608246,181.809189 290.806427,182.101700 
	C286.486115,182.263672 284.962830,180.923569 285.044708,176.476624 
	C285.289398,163.182846 285.131195,149.881638 285.130585,136.100677 
z"/>
<path fill="#C79F35" opacity="1.000000" stroke="none" 
	d="
M488.029480,360.981079 
	C487.451019,397.494995 474.001099,428.373840 447.210266,453.094025 
	C440.179077,459.581757 431.898865,464.715912 423.969299,470.737457 
	C423.746307,471.003204 423.356842,470.923798 423.115723,470.533264 
	C418.209839,461.894806 413.543396,453.647736 408.880554,445.398682 
	C400.539062,430.641571 392.199707,415.883209 384.050720,400.833008 
	C385.357178,399.557129 386.421234,398.507507 387.595520,397.600586 
	C397.354370,390.063477 402.909912,380.207886 403.927887,367.892792 
	C404.496338,361.016174 404.425659,361.012970 411.411560,360.998749 
	C436.896454,360.946899 462.381378,360.893158 487.866272,360.840118 
	C487.866272,360.840118 487.986053,360.922699 488.029480,360.981079 
z"/>
<path fill="#C61B35" opacity="1.000000" stroke="none" 
	d="
M383.859467,401.125397 
	C392.199707,415.883209 400.539062,430.641571 408.880554,445.398682 
	C413.543396,453.647736 418.209839,461.894806 422.925781,470.474823 
	C408.334900,478.289978 393.014893,483.418213 376.556183,485.232941 
	C353.991516,487.720856 332.500824,484.132355 311.842865,474.960968 
	C309.106598,473.746185 306.383423,472.501953 303.327026,471.124756 
	C302.997406,470.810242 302.994904,470.642334 302.987915,470.222290 
	C314.680908,449.908875 326.375000,429.845581 338.081696,409.789642 
	C339.168457,407.927856 339.993561,405.697968 341.567810,404.400482 
	C342.964722,403.249146 345.600708,402.194458 347.061920,402.749603 
	C359.122345,407.331696 370.784454,406.566040 382.859375,401.034180 
	C383.431519,401.016571 383.859467,401.125397 383.859467,401.125397 
z"/>
<path fill="#B41028" opacity="1.000000" stroke="none" 
	d="
M285.769409,554.260986 
	C293.338654,554.169739 300.488007,554.040833 307.633270,554.158752 
	C311.800964,554.227478 313.112946,552.083313 311.015106,549.008362 
	C309.109253,546.214783 306.307098,543.227539 303.268646,542.208679 
	C299.161133,540.831482 294.490692,541.621033 292.018677,546.226624 
	C290.078613,549.841187 287.438568,549.089661 284.530151,548.393555 
	C285.365479,536.901123 300.316376,533.041870 309.927399,538.035950 
	C317.809540,542.131592 321.347839,553.400513 318.160767,563.987488 
	C315.377411,573.233398 308.041473,578.092834 298.377838,576.872070 
	C287.397064,575.484863 283.047577,564.688599 283.600739,555.869263 
	C283.635132,555.320801 284.740601,554.839478 285.769409,554.260986 
M310.027191,566.381104 
	C310.645081,564.583801 311.262970,562.786438 312.219055,560.005432 
	C305.911896,560.005432 300.492401,559.923889 295.076691,560.031982 
	C290.938782,560.114502 290.102631,561.594482 291.797394,565.376343 
	C294.892944,572.284058 303.328308,573.049011 310.027191,566.381104 
z"/>
<path fill="#B40F28" opacity="1.000000" stroke="none" 
	d="
M367.319214,654.669617 
	C359.193695,657.221619 351.981445,656.584656 346.533478,649.986328 
	C340.547180,642.735901 340.519592,634.134705 343.473694,625.904663 
	C346.147583,618.455139 352.672302,615.256165 360.442078,615.036072 
	C368.678345,614.802734 375.107178,619.826660 377.214508,627.835571 
	C380.421661,640.024475 377.191376,649.068909 367.319214,654.669617 
M357.963257,649.992126 
	C362.896149,650.653748 367.142975,649.208557 369.330566,644.674744 
	C372.203461,638.720642 372.198425,632.279297 369.390564,626.342163 
	C366.440918,620.105286 357.848877,618.954407 352.786713,623.648438 
	C345.495087,630.409729 348.072998,645.839294 357.963257,649.992126 
z"/>
<path fill="#B31027" opacity="1.000000" stroke="none" 
	d="
M398.838867,554.344971 
	C398.875610,569.481323 391.843567,577.612610 379.442566,576.946411 
	C372.663025,576.582214 367.473419,573.555054 364.449341,567.136658 
	C358.901215,555.361206 363.249084,541.385681 373.797272,537.531555 
	C385.666351,533.194946 395.411987,538.560669 398.218323,550.982971 
	C398.437683,551.953918 398.611725,552.935120 398.838867,554.344971 
M369.059723,557.352051 
	C369.918610,565.551086 372.759491,569.940735 377.849640,570.933777 
	C384.840759,572.297729 389.557037,569.080017 391.331909,561.735291 
	C393.556854,552.528198 390.299103,543.939819 383.917572,542.231384 
	C383.280182,542.060791 382.607758,541.999817 381.946838,541.941711 
	C373.808502,541.226135 369.717255,545.848633 369.059723,557.352051 
z"/>
<path fill="#B41027" opacity="1.000000" stroke="none" 
	d="
M333.299042,550.636475 
	C338.281067,552.510498 342.971832,554.160217 347.698883,555.698303 
	C352.567505,557.282532 355.892181,560.117310 355.974609,565.616821 
	C356.045532,570.346069 352.763916,574.303467 347.459351,576.065002 
	C340.627747,578.333679 332.156708,576.787048 329.071899,572.193787 
	C328.027740,570.639099 327.391113,567.218140 328.283905,566.276306 
	C330.342072,564.105164 332.452118,565.192810 334.162140,567.900513 
	C336.382172,571.415710 343.737518,572.247559 347.271454,569.841309 
	C350.560242,567.601990 350.233734,564.256836 346.268921,562.707581 
	C341.479401,560.836121 336.389221,559.716370 331.646423,557.747803 
	C326.091187,555.442200 323.963684,550.910583 325.328369,545.730225 
	C327.078949,539.085083 333.850342,535.368347 342.966705,536.048828 
	C351.170380,536.661194 355.535431,540.485535 356.496826,548.125916 
	C353.496979,549.563660 351.273926,549.611755 349.254395,546.086731 
	C346.813293,541.825867 339.198181,540.259216 335.056793,542.795166 
	C332.118134,544.594604 330.969604,547.107727 333.299042,550.636475 
z"/>
<path fill="#B40F28" opacity="1.000000" stroke="none" 
	d="
M395.998474,629.945618 
	C396.018280,626.296936 395.698975,623.079773 396.203949,619.997742 
	C396.435394,618.585266 398.090149,616.683899 399.445892,616.329651 
	C402.190125,615.612366 403.256744,617.554565 403.087646,620.177734 
	C403.066284,620.509094 403.139252,620.852051 403.083069,621.174744 
	C400.735779,634.658630 405.869598,645.732605 413.920624,656.054443 
	C417.236664,660.305664 419.815430,665.131958 422.983765,670.094910 
	C417.950104,671.643738 414.682800,671.112427 412.178925,666.822327 
	C408.167969,659.950134 403.762024,653.308411 398.938293,645.639648 
	C395.677185,650.520691 392.776581,654.859375 389.878967,659.200073 
	C388.400726,661.414551 386.729187,663.528198 385.496277,665.872131 
	C383.322998,670.003784 380.119446,670.915466 375.197632,669.331299 
	C376.267242,667.562561 377.147095,665.904846 378.213959,664.377808 
	C383.454132,656.877136 389.143158,649.649475 393.819122,641.815247 
	C395.679535,638.698242 395.336212,634.265930 395.998474,629.945618 
z"/>
<path fill="#B30F28" opacity="1.000000" stroke="none" 
	d="
M327.939667,651.588135 
	C327.924988,644.143250 328.009613,637.152222 327.910034,630.163818 
	C327.819855,623.837158 325.322723,621.019104 319.978821,620.851929 
	C314.403290,620.677368 310.434082,624.044434 310.040436,629.761841 
	C309.572662,636.556641 309.628265,643.390442 309.041382,650.171387 
	C308.923279,651.535767 306.942596,652.738892 305.820679,654.016357 
	C304.857910,652.603394 303.091736,651.207336 303.061523,649.774658 
	C302.851044,639.794250 302.895447,629.803589 303.142273,619.823303 
	C303.181396,618.240662 304.652191,616.693420 305.461060,615.129883 
	C307.001221,616.090515 308.541382,617.051208 309.633057,617.732117 
	C314.333618,616.823914 319.189972,615.293945 324.098358,615.103149 
	C329.028717,614.911499 333.626678,619.186890 333.864624,624.121277 
	C334.311523,633.387817 334.098297,642.690247 333.956757,651.974670 
	C333.942474,652.911499 332.224060,654.727112 331.837067,654.591492 
	C330.420532,654.095337 329.232697,652.946289 327.939667,651.588135 
z"/>
<path fill="#B61128" opacity="1.000000" stroke="none" 
	d="
M415.031250,536.987183 
	C421.526520,536.992249 427.529327,537.112183 433.524994,536.956360 
	C436.802490,536.871216 437.921814,538.222107 437.903595,541.390686 
	C437.817291,556.389771 437.830963,571.389771 437.886810,586.389099 
	C437.897675,589.308716 437.312347,591.151794 433.772522,591.077759 
	C430.399414,591.007202 430.073151,589.085449 430.080261,586.491333 
	C430.114929,573.825134 429.967255,561.156555 430.175537,548.493591 
	C430.243744,544.346313 428.838287,542.851440 424.707275,543.048767 
	C419.220215,543.310974 413.698151,543.304993 408.219421,542.961914 
	C406.782928,542.871948 405.451050,541.111145 404.071106,540.117615 
	C405.392700,539.077148 406.578705,537.506653 408.068970,537.125366 
	C410.103210,536.604858 412.369202,536.990112 415.031250,536.987183 
z"/>
<path fill="#BA8F18" opacity="1.000000" stroke="none" 
	d="
M70.154510,243.466248 
	C72.622482,247.506577 71.612724,249.745697 67.681656,249.964890 
	C59.189411,250.438385 53.865585,254.378647 52.580444,262.565125 
	C52.163387,265.221832 53.903790,269.242462 56.020187,270.926025 
	C57.535145,272.131134 62.000866,271.384369 63.947628,269.915192 
	C67.739922,267.053253 70.396385,262.722198 74.074463,259.662109 
	C77.307465,256.972321 81.053085,254.068527 84.993668,253.223007 
	C94.792847,251.120422 103.226616,259.617096 101.826637,270.117706 
	C100.550766,279.687469 95.553024,287.447144 86.560387,291.477783 
	C83.378174,292.904053 79.156418,292.341156 75.454391,292.070038 
	C74.386894,291.991882 73.476608,289.766968 72.494255,288.526245 
	C74.042946,287.462555 75.666267,285.389923 77.128258,285.498077 
	C86.977936,286.226776 95.874298,277.609467 95.156769,267.602600 
	C94.705772,261.312805 89.116821,258.102264 83.819839,261.575623 
	C80.262642,263.908203 77.429855,267.331085 74.206131,270.190826 
	C71.237839,272.823975 68.505417,275.949402 65.098541,277.817413 
	C56.385307,282.594940 46.225853,276.441742 45.829117,266.522461 
	C45.261524,252.331360 56.380386,241.543762 70.154510,243.466248 
z"/>
<path fill="#BA8E17" opacity="1.000000" stroke="none" 
	d="
M195.517166,296.303406 
	C198.398453,288.919250 196.217896,284.602936 188.042419,281.795044 
	C188.413406,287.770020 187.385620,293.455414 182.295761,296.845764 
	C179.402679,298.772888 175.673019,300.071259 172.205521,300.384613 
	C163.725464,301.150909 152.322754,293.224915 149.823364,285.508942 
	C147.416595,278.078888 150.451218,271.550140 157.936371,266.428894 
	C158.770401,263.383118 158.762558,260.749878 160.063965,259.605469 
	C160.915680,258.856506 163.885803,259.862610 165.525970,260.770844 
	C175.854050,266.489929 186.178345,272.230804 196.289932,278.319794 
	C201.613235,281.525391 203.868027,286.698029 202.687729,292.907532 
	C201.384583,299.763397 198.194046,305.655365 191.419449,308.309875 
	C188.861435,309.312134 185.581696,308.472504 182.630966,308.472504 
	C182.403671,307.639099 182.176376,306.805725 181.949081,305.972321 
	C184.090118,304.721741 186.326904,303.607239 188.347534,302.185516 
	C190.774673,300.477844 193.017746,298.508545 195.517166,296.303406 
M168.630386,293.115265 
	C173.317474,294.714325 177.486694,294.233826 180.679062,290.037201 
	C183.381622,286.484467 183.914841,282.593750 181.269867,278.943878 
	C177.383392,273.580841 172.006302,270.383881 165.280914,270.117188 
	C160.813507,269.939972 157.720688,272.453918 155.929153,276.374542 
	C154.217773,280.119781 155.077667,283.854797 157.992004,286.422394 
	C160.914093,288.996735 164.550201,290.760681 168.630386,293.115265 
z"/>
<path fill="#B98E17" opacity="1.000000" stroke="none" 
	d="
M156.303467,346.364044 
	C155.521057,348.584930 154.640839,350.487457 153.354111,353.268707 
	C149.809036,349.146637 146.798584,345.690796 143.836685,342.193817 
	C135.344452,332.167450 126.889977,322.109009 118.375648,312.101471 
	C116.759338,310.201721 115.624420,308.530518 117.340767,305.951294 
	C118.831017,303.711853 120.100227,302.280182 123.260300,302.672485 
	C139.595459,304.700439 155.967163,306.432770 172.319382,308.326355 
	C173.722549,308.488831 175.076447,309.076752 176.560867,309.497559 
	C175.595840,314.688080 173.254654,316.549164 168.123962,315.603607 
	C156.052994,313.379059 156.017578,313.571259 150.356812,324.215088 
	C145.587601,333.182587 145.595047,333.176331 152.155426,340.985840 
	C153.544647,342.639557 154.857574,344.357422 156.303467,346.364044 
M134.497803,321.006805 
	C136.533798,323.295593 138.569778,325.584412 141.194641,328.535187 
	C144.173889,323.055786 146.703156,318.403992 149.679520,312.929901 
	C140.704132,311.569916 132.925415,310.391266 124.009102,309.040222 
	C127.948425,313.552612 130.976974,317.021729 134.497803,321.006805 
z"/>
<path fill="#BA8F18" opacity="1.000000" stroke="none" 
	d="
M114.997467,255.984161 
	C102.618355,249.084335 90.565376,242.354523 77.429482,235.020081 
	C79.557190,232.833588 81.231956,231.112549 83.500839,228.780975 
	C83.039932,215.622986 93.767044,208.072495 107.380157,213.410934 
	C113.776779,215.919403 119.053833,219.875595 121.648605,226.556763 
	C124.557091,234.045670 122.570679,240.327484 115.994423,244.904663 
	C115.220436,245.443375 114.437614,245.969391 113.090736,246.889404 
	C115.955963,248.591476 118.337524,250.019974 120.732773,251.425125 
	C123.006340,252.758881 125.294250,254.068192 127.477020,255.331070 
	C125.733894,261.573792 125.267403,261.777252 120.095100,258.880402 
	C118.496948,257.985321 116.913673,257.063660 114.997467,255.984161 
M95.580177,238.024811 
	C99.247940,239.406845 102.817261,241.302490 106.610558,242.029541 
	C110.573494,242.789108 114.115257,241.353409 115.957947,237.158661 
	C117.787453,232.993896 117.073212,229.163834 113.989830,226.166168 
	C111.420197,223.667953 108.424034,221.364380 105.209518,219.825104 
	C98.784134,216.748276 92.907745,218.047256 90.024223,222.522125 
	C87.433479,226.542633 88.817078,231.575180 93.894104,236.579803 
	C94.248169,236.928787 94.626793,237.252869 95.580177,238.024811 
z"/>
<path fill="#BA8E17" opacity="1.000000" stroke="none" 
	d="
M178.384186,227.175171 
	C182.224258,224.356064 185.808914,224.830673 189.462601,226.732758 
	C197.683762,231.012604 205.924744,235.254425 215.298309,240.101532 
	C213.317657,241.855286 211.266739,243.671265 209.215820,245.487244 
	C208.836761,245.266632 208.457718,245.046021 208.078674,244.825424 
	C208.078674,246.603470 208.064713,248.381668 208.081238,250.159561 
	C208.134628,255.902313 205.531143,260.394592 201.370132,264.065918 
	C198.208160,266.855774 194.579620,267.354340 190.685318,265.688446 
	C186.880966,264.061035 183.936813,261.301849 184.124954,257.122650 
	C184.322174,252.741211 185.764999,248.423157 186.563232,244.059067 
	C187.191864,240.622147 191.416901,236.968536 187.209045,233.874710 
	C185.639404,232.720642 181.541626,233.370056 179.606232,234.684128 
	C175.398041,237.541306 173.929352,243.776474 176.371307,247.505661 
	C178.754196,251.144653 177.159363,252.877914 174.358261,254.640457 
	C166.182388,249.022491 167.861465,237.063232 178.384186,227.175171 
M203.681763,248.547745 
	C203.032196,243.126389 200.488571,239.388947 194.472214,238.158218 
	C192.987625,242.951141 191.169250,247.447769 190.351700,252.119537 
	C190.012115,254.059998 191.290405,257.585724 192.764633,258.217865 
	C194.685486,259.041534 198.283661,258.509308 199.794876,257.098358 
	C201.771835,255.252579 202.414291,251.977432 203.681763,248.547745 
z"/>
<path fill="#BA8E17" opacity="1.000000" stroke="none" 
	d="
M228.106384,188.895203 
	C224.423630,186.892426 221.125854,184.937164 217.692978,183.258133 
	C212.534134,180.734924 208.680222,181.539825 206.285080,185.393448 
	C203.611328,189.695328 204.308151,195.455338 208.565918,198.286636 
	C214.230499,202.053406 220.286667,205.234161 226.197418,208.626923 
	C230.944748,211.351913 231.031174,211.773056 227.116882,216.784271 
	C216.721909,211.099686 206.231781,205.406281 195.816269,199.579529 
	C195.041443,199.146088 194.151505,197.253540 194.426086,196.898438 
	C195.590866,195.392212 197.175156,194.210373 199.313736,192.267059 
	C198.844513,187.155304 199.958939,181.467667 205.025635,177.228653 
	C208.486008,174.333557 212.332489,173.112747 216.561081,175.282272 
	C224.396942,179.302475 232.199448,183.394196 239.917038,187.635864 
	C244.163391,189.969681 240.786026,192.215042 239.763199,195.124893 
	C235.669113,192.936096 232.050003,191.001221 228.106384,188.895203 
z"/>
<path fill="#BA8F18" opacity="1.000000" stroke="none" 
	d="
M110.011932,179.902863 
	C111.033592,179.028244 112.063751,178.274673 112.270653,177.339050 
	C112.837448,174.776031 112.650818,171.996780 113.489265,169.552444 
	C116.400307,161.065933 123.928024,158.034973 131.831284,162.160461 
	C138.472427,165.627106 144.983002,169.350693 151.478729,173.086868 
	C155.948746,175.657913 155.938339,176.181473 151.883896,180.951859 
	C146.040512,177.769073 140.080383,174.524399 134.122192,171.276154 
	C132.661041,170.479584 131.259216,169.548477 129.738068,168.892715 
	C125.906021,167.240677 122.231247,167.031830 119.486267,170.881546 
	C116.860374,174.564240 117.025124,180.601532 120.400673,183.188141 
	C124.731133,186.506500 129.558441,189.180817 134.203079,192.082352 
	C135.754440,193.051483 137.424637,193.828232 139.001938,194.758347 
	C143.793747,197.584000 143.829407,197.934174 139.584442,202.832108 
	C129.401688,197.169449 119.030785,191.571823 108.851532,185.645050 
	C105.504913,183.696533 107.257271,181.561447 110.011932,179.902863 
z"/>
<path fill="#BA8E17" opacity="1.000000" stroke="none" 
	d="
M221.011841,228.921021 
	C219.426666,229.485703 217.671570,230.394897 216.667313,229.869339 
	C207.246048,224.938934 197.966888,219.737869 188.617538,214.668762 
	C183.984283,212.156693 187.261246,209.938263 188.833008,207.027161 
	C197.313187,211.659195 205.587906,216.174484 213.857468,220.699173 
	C215.898544,221.815933 218.189667,222.673767 219.853134,224.206909 
	C220.823868,225.101608 220.778473,227.098755 221.011841,228.921021 
z"/>
<path fill="#BA8F18" opacity="1.000000" stroke="none" 
	d="
M110.257721,197.749390 
	C117.679008,201.915878 124.761932,205.934784 131.882202,209.886398 
	C133.947388,211.032532 135.557922,212.036789 133.935623,214.842346 
	C132.351303,217.582275 130.583847,216.863434 128.535446,215.719635 
	C119.538681,210.695984 110.549744,205.657883 101.522591,200.689285 
	C97.217216,198.319580 99.421555,196.035049 101.605370,193.160217 
	C104.447739,194.667358 107.190659,196.121765 110.257721,197.749390 
z"/>
<path fill="#BD9119" opacity="1.000000" stroke="none" 
	d="
M91.069611,194.562225 
	C89.083992,192.901550 84.897606,193.449310 86.072746,189.539566 
	C86.449608,188.285751 88.370468,186.480133 89.311775,186.631012 
	C91.074127,186.913513 93.739128,188.222794 93.992744,189.507004 
	C94.283585,190.979660 92.362114,192.889221 91.069611,194.562225 
z"/>
<path fill="#BD9119" opacity="1.000000" stroke="none" 
	d="
M173.660095,206.206573 
	C173.897079,204.010406 174.367859,202.092255 175.144516,198.927795 
	C177.973145,201.213608 180.021484,202.475769 181.419464,204.250290 
	C181.812790,204.749557 180.338287,207.832687 179.649902,207.858643 
	C177.751205,207.930267 175.815155,207.011597 173.660095,206.206573 
z"/>
<path fill="#BA8F18" opacity="1.000000" stroke="none" 
	d="
M668.249329,486.239502 
	C664.039795,490.933197 659.067017,492.931946 653.235352,491.922363 
	C651.727478,491.661285 650.485718,489.862823 649.121704,488.770538 
	C650.568420,487.529907 651.935608,485.336365 653.475281,485.207764 
	C661.695190,484.521179 667.305725,480.454346 668.454407,472.300812 
	C668.828796,469.643341 667.005554,465.646027 664.856384,464.009766 
	C663.310913,462.833099 659.025940,463.762939 656.913818,465.175079 
	C653.820251,467.243469 651.604187,470.609894 648.961548,473.372833 
	C647.468445,474.933929 645.978394,476.529419 644.299744,477.876068 
	C638.106995,482.843964 631.427551,483.512970 625.849304,479.859894 
	C620.067627,476.073669 617.497192,468.617218 619.853027,461.274994 
	C622.316406,453.597656 626.432800,446.780121 634.161194,443.649139 
	C637.575562,442.265900 641.875977,442.769073 645.738525,443.003479 
	C646.709290,443.062408 648.566711,445.989868 648.236633,446.549683 
	C647.422424,447.930756 645.526550,449.642426 644.151855,449.570496 
	C633.900696,449.033905 625.312195,457.067078 625.828186,467.107147 
	C626.166992,473.700043 631.871887,477.009979 637.357849,473.321594 
	C641.027710,470.854309 643.934509,467.271332 647.281616,464.298950 
	C650.123047,461.775574 652.793030,458.811615 656.086914,457.093079 
	C664.937073,452.475555 674.881897,458.720306 675.172607,468.718231 
	C675.366943,475.401337 672.781799,481.018921 668.249329,486.239502 
z"/>
<path fill="#BA8E17" opacity="1.000000" stroke="none" 
	d="
M542.012329,457.951965 
	C535.694397,454.202942 529.503845,450.911804 523.771423,446.956726 
	C518.619324,443.402008 516.927124,438.015045 518.590088,431.939178 
	C520.461121,425.103088 523.616821,419.043274 531.235107,417.262115 
	C533.432678,416.748352 535.947876,417.593353 538.317505,417.815399 
	C538.543762,418.361816 538.770020,418.908234 538.996277,419.454681 
	C537.291077,420.884430 535.794006,423.054047 533.841125,423.603363 
	C528.266541,425.171417 524.528381,428.647949 524.047424,433.765991 
	C523.612427,438.395325 526.461365,441.927338 532.977173,444.249756 
	C532.563782,438.255524 533.603271,432.579224 538.670593,429.185425 
	C541.558472,427.251282 545.282776,425.944061 548.749084,425.618713 
	C557.203613,424.825195 568.637146,432.736389 571.161865,440.447601 
	C573.599548,447.893097 570.532166,454.519714 563.211914,459.456146 
	C562.164185,462.744476 561.850952,465.112640 560.606079,466.788727 
	C560.233154,467.290771 557.136047,466.101837 555.499878,465.269257 
	C551.052063,463.006104 546.718262,460.519073 542.012329,457.951965 
M565.099731,442.697205 
	C562.098145,436.659668 556.693665,433.910034 550.557007,432.384186 
	C545.825562,431.207794 542.056274,432.864655 539.536560,437.115936 
	C537.077820,441.264374 537.462463,445.578278 540.922607,448.485626 
	C544.504028,451.494873 548.780823,454.306030 553.215515,455.531158 
	C560.977478,457.675598 566.645569,451.555511 565.099731,442.697205 
z"/>
<path fill="#B98E17" opacity="1.000000" stroke="none" 
	d="
M573.877991,380.110596 
	C583.584900,391.529663 593.146851,402.610718 602.438477,413.914001 
	C603.583313,415.306702 603.938782,418.039276 603.505249,419.878723 
	C602.830688,422.740875 600.632324,423.693970 597.352966,423.284088 
	C581.352783,421.284119 565.312500,419.605469 549.292480,417.761139 
	C547.704895,417.578400 546.158020,417.042572 544.591553,416.670471 
	C546.207458,410.146301 547.036682,409.551514 552.734619,410.455994 
	C564.958069,412.396240 564.958069,412.396240 570.817200,401.456329 
	C575.443237,392.818787 575.443237,392.818756 568.932190,385.126495 
	C563.587158,378.811737 563.587158,378.811737 568.238403,373.435852 
	C570.069336,375.602448 571.860046,377.721405 573.877991,380.110596 
M591.059814,410.415192 
	C587.560730,406.312042 584.061707,402.208923 579.906250,397.336060 
	C576.874329,402.886688 574.333069,407.539032 571.322083,413.051331 
	C580.230591,414.415283 588.034363,415.610107 595.838135,416.804901 
	C596.336731,416.119690 596.835266,415.434479 597.333862,414.749268 
	C595.404114,413.472900 593.474365,412.196533 591.059814,410.415192 
z"/>
<path fill="#BA8F18" opacity="1.000000" stroke="none" 
	d="
M636.158325,495.834686 
	C638.473816,497.184326 640.476807,498.345795 643.525146,500.113403 
	C641.414673,502.206543 639.695923,503.911133 637.471741,506.117096 
	C638.062927,518.951172 627.650696,526.900269 614.568115,521.753662 
	C609.819885,519.885742 605.085083,516.558594 601.810791,512.664062 
	C594.892212,504.435120 597.249573,495.379120 607.819214,488.133667 
	C602.819946,485.135162 598.121216,482.316925 593.509705,479.550964 
	C595.352661,473.377350 595.729675,473.223114 600.959351,476.147156 
	C612.587280,482.648590 624.216980,489.146912 636.158325,495.834686 
M605.074829,506.101868 
	C608.768127,512.133362 614.198303,516.064941 621.117188,516.498840 
	C624.234314,516.694336 628.628357,514.943054 630.410339,512.557007 
	C632.018860,510.403229 632.011475,505.588654 630.681030,502.989502 
	C627.693237,497.152618 622.208374,493.693359 615.554443,492.931854 
	C607.023682,491.955505 602.905579,496.866608 605.074829,506.101868 
z"/>
<path fill="#BA8E17" opacity="1.000000" stroke="none" 
	d="
M542.828125,489.869690 
	C545.689758,485.597107 547.066467,481.749939 544.110046,477.067627 
	C543.335938,475.841675 544.916443,473.128998 545.415588,471.099121 
	C545.985962,471.087067 546.556274,471.075043 547.126648,471.062988 
	C548.167969,472.263336 549.426270,473.336761 550.214966,474.684937 
	C554.836670,482.585480 547.896729,498.647827 538.877380,500.397369 
	C536.511353,500.856262 533.560364,500.112854 531.309265,499.027374 
	C522.980591,495.011475 514.832336,490.621521 505.564880,485.828339 
	C507.638214,484.063690 509.645325,482.355408 511.652435,480.647095 
	C512.074707,480.867767 512.497009,481.088440 512.919312,481.309113 
	C512.919312,479.544403 512.925842,477.779663 512.918091,476.014984 
	C512.893799,470.505463 515.258118,466.082062 519.154236,462.373688 
	C522.365601,459.317169 526.051697,458.554688 530.178223,460.261993 
	C534.194153,461.923492 537.111084,464.813049 536.917664,469.236206 
	C536.739990,473.298431 535.498169,477.322418 534.620300,481.340363 
	C534.375854,482.459473 533.454285,483.475250 533.374695,484.576782 
	C533.188049,487.160004 532.265320,491.065033 533.539673,492.102661 
	C536.513916,494.524414 540.121338,493.506775 542.828125,489.869690 
M526.723633,486.975403 
	C528.110718,482.549835 529.867981,478.192657 530.704041,473.665344 
	C531.042053,471.834900 529.898315,468.585358 528.475159,467.864655 
	C526.692261,466.961792 523.384155,467.202179 521.699890,468.357178 
	C518.052002,470.858887 516.754456,474.961945 517.685913,479.364105 
	C518.648865,483.915405 521.202576,487.092529 526.723633,486.975403 
z"/>
<path fill="#BA8F18" opacity="1.000000" stroke="none" 
	d="
M589.952698,573.257996 
	C582.764404,569.290771 575.938965,565.463196 569.082825,561.691345 
	C566.804810,560.438171 565.251953,559.180725 566.974548,556.251038 
	C568.711792,553.296448 570.556702,554.766357 572.414612,555.783875 
	C578.255005,558.982544 584.005737,562.349976 589.901733,565.441040 
	C595.165222,568.200500 599.122681,567.630554 601.517090,564.140320 
	C604.413330,559.918518 603.863037,553.902039 599.485229,550.835876 
	C593.919983,546.937927 587.857117,543.750183 582.005615,540.261536 
	C577.220947,537.408997 577.176514,537.089478 581.382141,532.181213 
	C589.541260,536.688416 597.811768,541.254028 606.078308,545.826843 
	C607.389221,546.552002 608.814758,547.150085 609.949524,548.093018 
	C611.359924,549.264954 612.523132,550.734253 613.793091,552.075134 
	C612.390564,553.402649 610.987976,554.730225 608.759033,556.839966 
	C609.170959,562.049561 608.060242,568.090149 602.561401,572.433533 
	C598.712524,575.473572 594.560730,575.216125 589.952698,573.257996 
z"/>
<path fill="#BA8E17" opacity="1.000000" stroke="none" 
	d="
M479.664185,533.887695 
	C481.124237,530.455261 483.011383,531.640930 485.022614,532.762939 
	C490.832703,536.004272 496.636230,539.263489 502.534882,542.338135 
	C508.290955,545.338501 512.277283,544.640076 514.777161,540.489380 
	C517.605896,535.792725 516.491760,530.191528 511.537903,527.014221 
	C506.087128,523.518250 500.320923,520.513489 494.686035,517.305420 
	C490.017090,514.647278 489.935272,514.050049 493.960358,509.252014 
	C504.225128,514.863525 514.588257,520.474854 524.864319,526.241455 
	C525.757629,526.742798 526.822388,528.834717 526.531616,529.216919 
	C525.361511,530.754700 523.689880,531.910950 521.670715,533.673096 
	C522.209656,539.191101 520.868408,544.971924 515.483948,549.172546 
	C512.247009,551.697815 508.623291,552.805054 504.778320,550.847290 
	C496.782501,546.775940 488.834412,542.601990 481.009338,538.215759 
	C480.058167,537.682556 479.984100,535.584717 479.664185,533.887695 
z"/>
<path fill="#BA8E17" opacity="1.000000" stroke="none" 
	d="
M528.069214,516.848633 
	C519.317200,512.012756 510.879974,507.350342 502.448914,502.676727 
	C500.415771,501.549652 498.069641,500.706543 499.728210,497.470062 
	C501.562592,493.890503 503.616882,495.643463 505.829865,496.859100 
	C514.424072,501.580231 523.026428,506.287079 531.662354,510.931244 
	C533.907227,512.138489 535.598389,513.146851 534.015930,516.242065 
	C532.314941,519.568848 530.451843,518.203186 528.069214,516.848633 
z"/>
<path fill="#BA8F18" opacity="1.000000" stroke="none" 
	d="
M600.965454,524.029541 
	C606.950378,527.359924 612.605286,530.526855 618.268555,533.678650 
	C623.011414,536.318237 623.111023,536.948608 619.065063,541.792664 
	C608.747803,536.028992 598.301086,530.274658 587.995300,524.278320 
	C587.183899,523.806213 586.718018,521.290344 587.237366,520.373169 
	C587.799988,519.379639 590.039795,518.342224 590.966064,518.726562 
	C594.322449,520.119324 597.434631,522.100525 600.965454,524.029541 
z"/>
<path fill="#BD9119" opacity="1.000000" stroke="none" 
	d="
M635.306763,544.771973 
	C633.867126,546.208130 632.453064,548.284424 631.180054,548.201172 
	C629.583984,548.096985 627.762573,546.459045 626.741516,544.993286 
	C626.334412,544.408813 628.209839,541.341187 628.361938,541.393494 
	C630.772034,542.222412 633.070801,543.375061 635.306763,544.771973 
z"/>
<path fill="#BD9119" opacity="1.000000" stroke="none" 
	d="
M546.699890,519.369019 
	C546.484985,521.559631 545.997009,523.518982 545.508972,525.478394 
	C543.740173,524.762268 541.507629,524.457520 540.373352,523.178650 
	C539.672180,522.388062 540.300049,518.919556 540.928406,518.739685 
	C542.587402,518.264954 544.571899,518.927856 546.699890,519.369019 
z"/>
<path fill="#E7E7E7" opacity="1.000000" stroke="none" 
	d="
M341.076263,327.303650 
	C353.223419,320.490234 365.571442,318.941437 378.860596,323.946716 
	C383.800232,327.404266 388.774323,330.461029 392.775574,334.485077 
	C399.414368,341.161774 402.293304,349.749298 403.031433,359.906067 
	C402.841278,362.894196 402.759033,365.061371 402.425537,367.189178 
	C400.347931,380.444733 392.579681,389.727570 381.637421,396.767151 
	C368.905518,402.184692 356.266693,402.833740 343.197388,395.708252 
	C331.545959,388.615662 325.372070,378.572723 323.006470,365.988983 
	C323.019806,365.238220 323.033142,364.487427 322.987915,363.079590 
	C322.890747,362.230133 322.852203,362.037750 322.813690,361.845398 
	C323.396179,347.560913 328.936493,335.889587 341.076263,327.303650 
z"/>
<path fill="#0A8160" opacity="1.000000" stroke="none" 
	d="
M322.600403,361.883636 
	C322.852203,362.037750 322.890747,362.230133 322.892853,362.714783 
	C322.628326,362.840393 322.422882,362.649475 322.114868,362.264557 
	C321.989716,362.094879 322.387085,361.921875 322.600403,361.883636 
z"/>
<path fill="#0A8160" opacity="1.000000" stroke="none" 
	d="
M322.794281,366.307007 
	C325.372070,378.572723 331.545959,388.615662 342.838989,395.638641 
	C342.253693,397.197357 341.450867,398.505676 340.382935,400.010254 
	C337.281616,397.174103 334.348846,394.225525 331.628845,391.092224 
	C325.552856,384.092987 321.876678,376.155945 322.794281,366.307007 
z"/>
<path fill="#01BA88" opacity="1.000000" stroke="none" 
	d="
M201.045731,500.968628 
	C201.101303,500.914062 201.355423,501.231171 201.355423,501.231171 
	C201.355423,501.231171 201.019211,501.302765 200.951477,501.219910 
	C200.883728,501.137024 200.990158,501.023224 201.045731,500.968628 
z"/>
<path fill="#A98D44" opacity="1.000000" stroke="none" 
	d="
M381.752930,397.110535 
	C392.579681,389.727570 400.347931,380.444733 402.425537,367.189178 
	C402.759033,365.061371 402.841278,362.894196 403.111023,360.312195 
	C431.097626,359.941010 459.012817,360.002899 487.374542,360.109192 
	C487.821045,360.153625 487.872284,360.495758 487.869263,360.667938 
	C462.381378,360.893158 436.896454,360.946899 411.411560,360.998749 
	C404.425659,361.012970 404.496338,361.016174 403.927887,367.892792 
	C402.909912,380.207886 397.354370,390.063477 387.595520,397.600586 
	C386.421234,398.507507 385.357178,399.557129 384.050720,400.833008 
	C383.859467,401.125397 383.431519,401.016571 383.221619,400.945007 
	C382.630646,399.733582 382.249542,398.593750 381.752930,397.110535 
z"/>
<path fill="#FD2244" opacity="1.000000" stroke="none" 
	d="
M428.569641,158.969025 
	C422.674469,158.981857 417.230194,158.981857 411.821350,158.981857 
	C411.635315,153.104507 414.497589,149.021271 419.003021,148.071793 
	C424.523499,146.908417 429.604980,149.296860 431.361115,153.986755 
	C432.245331,156.348114 432.766418,158.700302 428.569641,158.969025 
z"/>
<path fill="#FD2245" opacity="1.000000" stroke="none" 
	d="
M351.098450,85.649223 
	C353.550659,77.998718 357.495514,75.117851 363.808197,75.989082 
	C369.191284,76.732018 372.857849,81.625160 373.059540,88.410866 
	C373.113770,90.235657 373.129089,92.072456 372.988251,93.890274 
	C372.451477,100.818108 368.268738,105.069145 362.054504,105.098808 
	C355.815369,105.128593 351.500122,100.902199 350.997772,94.039108 
	C350.804504,91.398766 351.011871,88.729103 351.098450,85.649223 
z"/>
<path fill="#FD2244" opacity="1.000000" stroke="none" 
	d="
M335.977509,175.274750 
	C330.491211,169.351334 329.410950,159.132568 333.307861,152.698212 
	C337.413849,145.918594 347.757355,146.042648 351.557983,152.995209 
	C355.025665,159.338623 354.762329,165.867859 351.608459,172.185547 
	C349.044861,177.320969 343.010101,178.479980 335.977509,175.274750 
z"/>
<path fill="#FD2244" opacity="1.000000" stroke="none" 
	d="
M309.800812,566.684692 
	C303.328308,573.049011 294.892944,572.284058 291.797394,565.376343 
	C290.102631,561.594482 290.938782,560.114502 295.076691,560.031982 
	C300.492401,559.923889 305.911896,560.005432 312.219055,560.005432 
	C311.262970,562.786438 310.645081,564.583801 309.800812,566.684692 
z"/>
<path fill="#FE2244" opacity="1.000000" stroke="none" 
	d="
M357.564117,649.922974 
	C348.072998,645.839294 345.495087,630.409729 352.786713,623.648438 
	C357.848877,618.954407 366.440918,620.105286 369.390564,626.342163 
	C372.198425,632.279297 372.203461,638.720642 369.330566,644.674744 
	C367.142975,649.208557 362.896149,650.653748 357.564117,649.922974 
z"/>
<path fill="#FD2244" opacity="1.000000" stroke="none" 
	d="
M369.057800,556.923401 
	C369.717255,545.848633 373.808502,541.226135 381.946838,541.941711 
	C382.607758,541.999817 383.280182,542.060791 383.917572,542.231384 
	C390.299103,543.939819 393.556854,552.528198 391.331909,561.735291 
	C389.557037,569.080017 384.840759,572.297729 377.849640,570.933777 
	C372.759491,569.940735 369.918610,565.551086 369.057800,556.923401 
z"/>
<path fill="#FDCB43" opacity="1.000000" stroke="none" 
	d="
M168.251877,292.997528 
	C164.550201,290.760681 160.914093,288.996735 157.992004,286.422394 
	C155.077667,283.854797 154.217773,280.119781 155.929153,276.374542 
	C157.720688,272.453918 160.813507,269.939972 165.280914,270.117188 
	C172.006302,270.383881 177.383392,273.580841 181.269867,278.943878 
	C183.914841,282.593750 183.381622,286.484467 180.679062,290.037201 
	C177.486694,294.233826 173.317474,294.714325 168.251877,292.997528 
z"/>
<path fill="#FBC942" opacity="1.000000" stroke="none" 
	d="
M134.251648,320.748840 
	C130.976974,317.021729 127.948425,313.552612 124.009102,309.040222 
	C132.925415,310.391266 140.704132,311.569916 149.679520,312.929901 
	C146.703156,318.403992 144.173889,323.055786 141.194641,328.535187 
	C138.569778,325.584412 136.533798,323.295593 134.251648,320.748840 
z"/>
<path fill="#FDCB44" opacity="1.000000" stroke="none" 
	d="
M95.287086,237.806671 
	C94.626793,237.252869 94.248169,236.928787 93.894104,236.579803 
	C88.817078,231.575180 87.433479,226.542633 90.024223,222.522125 
	C92.907745,218.047256 98.784134,216.748276 105.209518,219.825104 
	C108.424034,221.364380 111.420197,223.667953 113.989830,226.166168 
	C117.073212,229.163834 117.787453,232.993896 115.957947,237.158661 
	C114.115257,241.353409 110.573494,242.789108 106.610558,242.029541 
	C102.817261,241.302490 99.247940,239.406845 95.287086,237.806671 
z"/>
<path fill="#FBCA43" opacity="1.000000" stroke="none" 
	d="
M203.656311,248.932465 
	C202.414291,251.977432 201.771835,255.252579 199.794876,257.098358 
	C198.283661,258.509308 194.685486,259.041534 192.764633,258.217865 
	C191.290405,257.585724 190.012115,254.059998 190.351700,252.119537 
	C191.169250,247.447769 192.987625,242.951141 194.472214,238.158218 
	C200.488571,239.388947 203.032196,243.126389 203.656311,248.932465 
z"/>
<path fill="#FDCB43" opacity="1.000000" stroke="none" 
	d="
M565.213135,443.062927 
	C566.645569,451.555511 560.977478,457.675598 553.215515,455.531158 
	C548.780823,454.306030 544.504028,451.494873 540.922607,448.485626 
	C537.462463,445.578278 537.077820,441.264374 539.536560,437.115936 
	C542.056274,432.864655 545.825562,431.207794 550.557007,432.384186 
	C556.693665,433.910034 562.098145,436.659668 565.213135,443.062927 
z"/>
<path fill="#FBC841" opacity="1.000000" stroke="none" 
	d="
M591.302246,410.667664 
	C593.474365,412.196533 595.404114,413.472900 597.333862,414.749268 
	C596.835266,415.434479 596.336731,416.119690 595.838135,416.804901 
	C588.034363,415.610107 580.230591,414.415283 571.322083,413.051331 
	C574.333069,407.539032 576.874329,402.886688 579.906250,397.336060 
	C584.061707,402.208923 587.560730,406.312042 591.302246,410.667664 
z"/>
<path fill="#FDCB43" opacity="1.000000" stroke="none" 
	d="
M604.916687,505.754150 
	C602.905579,496.866608 607.023682,491.955505 615.554443,492.931854 
	C622.208374,493.693359 627.693237,497.152618 630.681030,502.989502 
	C632.011475,505.588654 632.018860,510.403229 630.410339,512.557007 
	C628.628357,514.943054 624.234314,516.694336 621.117188,516.498840 
	C614.198303,516.064941 608.768127,512.133362 604.916687,505.754150 
z"/>
<path fill="#FBCA43" opacity="1.000000" stroke="none" 
	d="
M526.480591,487.246002 
	C521.202576,487.092529 518.648865,483.915405 517.685913,479.364105 
	C516.754456,474.961945 518.052002,470.858887 521.699890,468.357178 
	C523.384155,467.202179 526.692261,466.961792 528.475159,467.864655 
	C529.898315,468.585358 531.042053,471.834900 530.704041,473.665344 
	C529.867981,478.192657 528.110718,482.549835 526.480591,487.246002 
z"/>
</svg>